solid OpenSCAD_Model
  facet normal -1 0 0
    outer loop
      vertex 3 -6.10476 0
      vertex 3 5.10476 10
      vertex 3 5.10476 0
    endloop
  endfacet
  facet normal -1 -0 0
    outer loop
      vertex 3 5.10476 10
      vertex 3 -6.10476 0
      vertex 3 -6.10476 10
    endloop
  endfacet
  facet normal -1 0 0
    outer loop
      vertex 3 -19 1.14214
      vertex 3 -15.8952 0
      vertex 3 -17.9289 0.0710678
    endloop
  endfacet
  facet normal -1 0 -0
    outer loop
      vertex 3 -17.9289 0.0710678
      vertex 3 -15.8952 0
      vertex 3 -18 0
    endloop
  endfacet
  facet normal -1 0 0
    outer loop
      vertex 3 -15.8952 0
      vertex 3 -19 1.14214
      vertex 3 -15.8952 10
    endloop
  endfacet
  facet normal -1 0 0
    outer loop
      vertex 3 -19 9
      vertex 3 -15.8952 10
      vertex 3 -19 1.14214
    endloop
  endfacet
  facet normal -1 -0 0
    outer loop
      vertex 3 -15.8952 10
      vertex 3 -19 9
      vertex 3 -18 10
    endloop
  endfacet
  facet normal -1 0 0
    outer loop
      vertex 3 17 0
      vertex 3 14.8952 0
      vertex 3 16.9289 0.0710678
    endloop
  endfacet
  facet normal -1 0 0
    outer loop
      vertex 3 14.8952 10
      vertex 3 18 9
      vertex 3 18 1.14214
    endloop
  endfacet
  facet normal -1 0 0
    outer loop
      vertex 3 14.8952 0
      vertex 3 18 1.14214
      vertex 3 16.9289 0.0710678
    endloop
  endfacet
  facet normal -1 -0 0
    outer loop
      vertex 3 18 1.14214
      vertex 3 14.8952 0
      vertex 3 14.8952 10
    endloop
  endfacet
  facet normal -1 0 0
    outer loop
      vertex 3 18 9
      vertex 3 14.8952 10
      vertex 3 17 10
    endloop
  endfacet
  facet normal -0 0 1
    outer loop
      vertex 8.84292 8.75655 10
      vertex 10 5 10
      vertex 8.96057 9.37333 10
    endloop
  endfacet
  facet normal 0 0 1
    outer loop
      vertex 10 5 10
      vertex 8.96057 -10.3733 10
      vertex 9 -11 10
    endloop
  endfacet
  facet normal -0 0 1
    outer loop
      vertex 8.64888 8.15938 10
      vertex 10 5 10
      vertex 8.84292 8.75655 10
    endloop
  endfacet
  facet normal 0 0 1
    outer loop
      vertex 10 5 10
      vertex 8.84292 -9.75655 10
      vertex 8.96057 -10.3733 10
    endloop
  endfacet
  facet normal -0 0 1
    outer loop
      vertex 8.38153 7.59123 10
      vertex 10 5 10
      vertex 8.64888 8.15938 10
    endloop
  endfacet
  facet normal 0 0 1
    outer loop
      vertex 10 5 10
      vertex 8.64888 -9.15938 10
      vertex 8.84292 -9.75655 10
    endloop
  endfacet
  facet normal -0 0 1
    outer loop
      vertex 8.04508 7.06107 10
      vertex 10 5 10
      vertex 8.38153 7.59123 10
    endloop
  endfacet
  facet normal 0 0 1
    outer loop
      vertex 10 5 10
      vertex 8.38153 -8.59123 10
      vertex 8.64888 -9.15938 10
    endloop
  endfacet
  facet normal -0 0 1
    outer loop
      vertex 7.64484 6.57726 10
      vertex 10 5 10
      vertex 8.04508 7.06107 10
    endloop
  endfacet
  facet normal 0 0 1
    outer loop
      vertex 10 5 10
      vertex 8.04508 -8.06107 10
      vertex 8.38153 -8.59123 10
    endloop
  endfacet
  facet normal -0 0 1
    outer loop
      vertex 7.18712 6.14743 10
      vertex 10 5 10
      vertex 7.64484 6.57726 10
    endloop
  endfacet
  facet normal 0 0 1
    outer loop
      vertex 10 5 10
      vertex 7.64484 -7.57726 10
      vertex 8.04508 -8.06107 10
    endloop
  endfacet
  facet normal -0 0 1
    outer loop
      vertex 6.67913 5.77836 10
      vertex 10 5 10
      vertex 7.18712 6.14743 10
    endloop
  endfacet
  facet normal 0 0 1
    outer loop
      vertex 10 5 10
      vertex 7.18712 -7.14743 10
      vertex 7.64484 -7.57726 10
    endloop
  endfacet
  facet normal -0 0 1
    outer loop
      vertex 6.1289 5.47586 10
      vertex 10 5 10
      vertex 6.67913 5.77836 10
    endloop
  endfacet
  facet normal 0 0 1
    outer loop
      vertex 10 5 10
      vertex 6.67913 -6.77836 10
      vertex 7.18712 -7.14743 10
    endloop
  endfacet
  facet normal -0 0 1
    outer loop
      vertex 5.54508 5.24472 10
      vertex 10 5 10
      vertex 6.1289 5.47586 10
    endloop
  endfacet
  facet normal 0 0 1
    outer loop
      vertex 10 5 10
      vertex 6.1289 -6.47586 10
      vertex 6.67913 -6.77836 10
    endloop
  endfacet
  facet normal 0 0 1
    outer loop
      vertex 5.54508 -6.24472 10
      vertex 10 5 10
      vertex 5.54508 5.24472 10
    endloop
  endfacet
  facet normal 0 0 1
    outer loop
      vertex 10 5 10
      vertex 5.54508 -6.24472 10
      vertex 6.1289 -6.47586 10
    endloop
  endfacet
  facet normal -0 0 1
    outer loop
      vertex 4.93691 5.08856 10
      vertex 5.54508 -6.24472 10
      vertex 5.54508 5.24472 10
    endloop
  endfacet
  facet normal 0 0 1
    outer loop
      vertex 4.93691 5.08856 10
      vertex 4.93691 -6.08856 10
      vertex 5.54508 -6.24472 10
    endloop
  endfacet
  facet normal -0 0 1
    outer loop
      vertex 4.31395 5.00987 10
      vertex 4.93691 -6.08856 10
      vertex 4.93691 5.08856 10
    endloop
  endfacet
  facet normal 0 0 1
    outer loop
      vertex 4.31395 5.00987 10
      vertex 4.31395 -6.00987 10
      vertex 4.93691 -6.08856 10
    endloop
  endfacet
  facet normal -0 0 1
    outer loop
      vertex 3.68605 5.00987 10
      vertex 4.31395 -6.00987 10
      vertex 4.31395 5.00987 10
    endloop
  endfacet
  facet normal 0 0 1
    outer loop
      vertex 3.68605 5.00987 10
      vertex 3.68605 -6.00987 10
      vertex 4.31395 -6.00987 10
    endloop
  endfacet
  facet normal 0 0 1
    outer loop
      vertex 3.06309 5.08856 10
      vertex 3.68605 -6.00987 10
      vertex 3.68605 5.00987 10
    endloop
  endfacet
  facet normal 0 0 1
    outer loop
      vertex 3.06309 5.08856 10
      vertex 3.06309 -6.08856 10
      vertex 3.68605 -6.00987 10
    endloop
  endfacet
  facet normal 0 0 1
    outer loop
      vertex 3 5.10476 10
      vertex 3.06309 -6.08856 10
      vertex 3.06309 5.08856 10
    endloop
  endfacet
  facet normal 0 0 1
    outer loop
      vertex 3.06309 -6.08856 10
      vertex 3 5.10476 10
      vertex 3 -6.10476 10
    endloop
  endfacet
  facet normal 0 0 1
    outer loop
      vertex 12 17 10
      vertex 10 14 10
      vertex 12 14 10
    endloop
  endfacet
  facet normal 0 0 1
    outer loop
      vertex 10 14 10
      vertex 9 10 10
      vertex 10 5 10
    endloop
  endfacet
  facet normal 0 0 1
    outer loop
      vertex 10 14 10
      vertex 8.96057 10.6267 10
      vertex 9 10 10
    endloop
  endfacet
  facet normal 0 0 1
    outer loop
      vertex 10 14 10
      vertex 8.84292 11.2434 10
      vertex 8.96057 10.6267 10
    endloop
  endfacet
  facet normal 0 0 1
    outer loop
      vertex 10 14 10
      vertex 8.64888 11.8406 10
      vertex 8.84292 11.2434 10
    endloop
  endfacet
  facet normal 0 0 1
    outer loop
      vertex 10 14 10
      vertex 8.38153 12.4088 10
      vertex 8.64888 11.8406 10
    endloop
  endfacet
  facet normal -0 0 1
    outer loop
      vertex 6.67913 14.2216 10
      vertex 10 14 10
      vertex 12 17 10
    endloop
  endfacet
  facet normal 0 0 1
    outer loop
      vertex 10 14 10
      vertex 8.04508 12.9389 10
      vertex 8.38153 12.4088 10
    endloop
  endfacet
  facet normal 0 0 1
    outer loop
      vertex 10 14 10
      vertex 7.64484 13.4227 10
      vertex 8.04508 12.9389 10
    endloop
  endfacet
  facet normal 0 0 1
    outer loop
      vertex 10 14 10
      vertex 7.18712 13.8526 10
      vertex 7.64484 13.4227 10
    endloop
  endfacet
  facet normal 0 0 1
    outer loop
      vertex 10 14 10
      vertex 6.67913 14.2216 10
      vertex 7.18712 13.8526 10
    endloop
  endfacet
  facet normal 0 0 1
    outer loop
      vertex 12 17 10
      vertex 6.1289 14.5241 10
      vertex 6.67913 14.2216 10
    endloop
  endfacet
  facet normal 0 0 1
    outer loop
      vertex 12 17 10
      vertex 5.54508 14.7553 10
      vertex 6.1289 14.5241 10
    endloop
  endfacet
  facet normal -0 0 1
    outer loop
      vertex 3 17 10
      vertex 5.54508 14.7553 10
      vertex 12 17 10
    endloop
  endfacet
  facet normal 0 0 1
    outer loop
      vertex 5.54508 14.7553 10
      vertex 3 17 10
      vertex 4.93691 14.9114 10
    endloop
  endfacet
  facet normal 0 0 1
    outer loop
      vertex 4.93691 14.9114 10
      vertex 3 17 10
      vertex 4.31395 14.9901 10
    endloop
  endfacet
  facet normal 0 0 1
    outer loop
      vertex 4.31395 14.9901 10
      vertex 3 17 10
      vertex 3.68605 14.9901 10
    endloop
  endfacet
  facet normal 0 0 1
    outer loop
      vertex 3.68605 14.9901 10
      vertex 3 17 10
      vertex 3.06309 14.9114 10
    endloop
  endfacet
  facet normal 0 0 1
    outer loop
      vertex 3.06309 14.9114 10
      vertex 3 17 10
      vertex 3 14.8952 10
    endloop
  endfacet
  facet normal 0 0 1
    outer loop
      vertex 9 -11 10
      vertex 12 5 10
      vertex 10 5 10
    endloop
  endfacet
  facet normal -0 0 1
    outer loop
      vertex 8.96057 9.37333 10
      vertex 10 5 10
      vertex 9 10 10
    endloop
  endfacet
  facet normal 0 0 1
    outer loop
      vertex 12 5 10
      vertex 9 -11 10
      vertex 12 -18 10
    endloop
  endfacet
  facet normal -0 0 1
    outer loop
      vertex 8.96057 -11.6267 10
      vertex 12 -18 10
      vertex 9 -11 10
    endloop
  endfacet
  facet normal -0 0 1
    outer loop
      vertex 8.84292 -12.2434 10
      vertex 12 -18 10
      vertex 8.96057 -11.6267 10
    endloop
  endfacet
  facet normal -0 0 1
    outer loop
      vertex 8.64888 -12.8406 10
      vertex 12 -18 10
      vertex 8.84292 -12.2434 10
    endloop
  endfacet
  facet normal -0 0 1
    outer loop
      vertex 8.38153 -13.4088 10
      vertex 12 -18 10
      vertex 8.64888 -12.8406 10
    endloop
  endfacet
  facet normal -0 0 1
    outer loop
      vertex 8.04508 -13.9389 10
      vertex 12 -18 10
      vertex 8.38153 -13.4088 10
    endloop
  endfacet
  facet normal -0 0 1
    outer loop
      vertex 7.64484 -14.4227 10
      vertex 12 -18 10
      vertex 8.04508 -13.9389 10
    endloop
  endfacet
  facet normal -0 0 1
    outer loop
      vertex 7.18712 -14.8526 10
      vertex 12 -18 10
      vertex 7.64484 -14.4227 10
    endloop
  endfacet
  facet normal -0 0 1
    outer loop
      vertex 6.67913 -15.2216 10
      vertex 12 -18 10
      vertex 7.18712 -14.8526 10
    endloop
  endfacet
  facet normal -0 0 1
    outer loop
      vertex 6.1289 -15.5241 10
      vertex 12 -18 10
      vertex 6.67913 -15.2216 10
    endloop
  endfacet
  facet normal -0 0 1
    outer loop
      vertex 5.54508 -15.7553 10
      vertex 12 -18 10
      vertex 6.1289 -15.5241 10
    endloop
  endfacet
  facet normal 0 0 1
    outer loop
      vertex 3 -18 10
      vertex 5.54508 -15.7553 10
      vertex 4.93691 -15.9114 10
    endloop
  endfacet
  facet normal 0 0 1
    outer loop
      vertex 3 -18 10
      vertex 4.93691 -15.9114 10
      vertex 4.31395 -15.9901 10
    endloop
  endfacet
  facet normal 0 0 1
    outer loop
      vertex 3 -18 10
      vertex 4.31395 -15.9901 10
      vertex 3.68605 -15.9901 10
    endloop
  endfacet
  facet normal 0 0 1
    outer loop
      vertex 3 -18 10
      vertex 3.68605 -15.9901 10
      vertex 3.06309 -15.9114 10
    endloop
  endfacet
  facet normal 0 0 1
    outer loop
      vertex 5.54508 -15.7553 10
      vertex 3 -18 10
      vertex 12 -18 10
    endloop
  endfacet
  facet normal 0 0 1
    outer loop
      vertex 3 -18 10
      vertex 3.06309 -15.9114 10
      vertex 3 -15.8952 10
    endloop
  endfacet
  facet normal 0 1 -0
    outer loop
      vertex 12 18 1.14214
      vertex 3 18 9
      vertex 12 18 9
    endloop
  endfacet
  facet normal 0 1 0
    outer loop
      vertex 3 18 9
      vertex 12 18 1.14214
      vertex 3 18 1.14214
    endloop
  endfacet
  facet normal 0 0 -1
    outer loop
      vertex 12 -18 0
      vertex 8.84292 -9.75655 0
      vertex 12 17 0
    endloop
  endfacet
  facet normal 0 0 -1
    outer loop
      vertex 12 17 0
      vertex 8.96057 9.37333 0
      vertex 9 10 0
    endloop
  endfacet
  facet normal 0 0 -1
    outer loop
      vertex 8.84292 8.75655 0
      vertex 12 17 0
      vertex 8.84292 -9.75655 0
    endloop
  endfacet
  facet normal 0 0 -1
    outer loop
      vertex 12 17 0
      vertex 8.84292 8.75655 0
      vertex 8.96057 9.37333 0
    endloop
  endfacet
  facet normal 0 0 -1
    outer loop
      vertex 8.64888 -9.15938 0
      vertex 8.84292 8.75655 0
      vertex 8.84292 -9.75655 0
    endloop
  endfacet
  facet normal 0 0 -1
    outer loop
      vertex 8.64888 -9.15938 0
      vertex 8.64888 8.15938 0
      vertex 8.84292 8.75655 0
    endloop
  endfacet
  facet normal 0 0 -1
    outer loop
      vertex 8.38153 -8.59123 0
      vertex 8.64888 8.15938 0
      vertex 8.64888 -9.15938 0
    endloop
  endfacet
  facet normal 0 0 -1
    outer loop
      vertex 8.38153 -8.59123 0
      vertex 8.38153 7.59123 0
      vertex 8.64888 8.15938 0
    endloop
  endfacet
  facet normal 0 0 -1
    outer loop
      vertex 8.04508 -8.06107 0
      vertex 8.38153 7.59123 0
      vertex 8.38153 -8.59123 0
    endloop
  endfacet
  facet normal 0 0 -1
    outer loop
      vertex 8.04508 -8.06107 0
      vertex 8.04508 7.06107 0
      vertex 8.38153 7.59123 0
    endloop
  endfacet
  facet normal 0 0 -1
    outer loop
      vertex 7.64484 -7.57726 0
      vertex 8.04508 7.06107 0
      vertex 8.04508 -8.06107 0
    endloop
  endfacet
  facet normal 0 0 -1
    outer loop
      vertex 7.64484 -7.57726 0
      vertex 7.64484 6.57726 0
      vertex 8.04508 7.06107 0
    endloop
  endfacet
  facet normal 0 0 -1
    outer loop
      vertex 7.18712 -7.14743 0
      vertex 7.64484 6.57726 0
      vertex 7.64484 -7.57726 0
    endloop
  endfacet
  facet normal 0 0 -1
    outer loop
      vertex 7.18712 -7.14743 0
      vertex 7.18712 6.14743 0
      vertex 7.64484 6.57726 0
    endloop
  endfacet
  facet normal 0 0 -1
    outer loop
      vertex 6.67913 -6.77836 0
      vertex 7.18712 6.14743 0
      vertex 7.18712 -7.14743 0
    endloop
  endfacet
  facet normal 0 0 -1
    outer loop
      vertex 6.67913 -6.77836 0
      vertex 6.67913 5.77836 0
      vertex 7.18712 6.14743 0
    endloop
  endfacet
  facet normal 0 0 -1
    outer loop
      vertex 6.1289 -6.47586 0
      vertex 6.67913 5.77836 0
      vertex 6.67913 -6.77836 0
    endloop
  endfacet
  facet normal 0 0 -1
    outer loop
      vertex 6.1289 -6.47586 0
      vertex 6.1289 5.47586 0
      vertex 6.67913 5.77836 0
    endloop
  endfacet
  facet normal 0 0 -1
    outer loop
      vertex 5.54508 -6.24472 0
      vertex 6.1289 5.47586 0
      vertex 6.1289 -6.47586 0
    endloop
  endfacet
  facet normal 0 0 -1
    outer loop
      vertex 5.54508 -6.24472 0
      vertex 5.54508 5.24472 0
      vertex 6.1289 5.47586 0
    endloop
  endfacet
  facet normal 0 0 -1
    outer loop
      vertex 4.93691 -6.08856 0
      vertex 5.54508 5.24472 0
      vertex 5.54508 -6.24472 0
    endloop
  endfacet
  facet normal 0 0 -1
    outer loop
      vertex 4.93691 -6.08856 0
      vertex 4.93691 5.08856 0
      vertex 5.54508 5.24472 0
    endloop
  endfacet
  facet normal 0 0 -1
    outer loop
      vertex 4.31395 -6.00987 0
      vertex 4.93691 5.08856 0
      vertex 4.93691 -6.08856 0
    endloop
  endfacet
  facet normal 0 0 -1
    outer loop
      vertex 4.31395 -6.00987 0
      vertex 4.31395 5.00987 0
      vertex 4.93691 5.08856 0
    endloop
  endfacet
  facet normal 0 0 -1
    outer loop
      vertex 3.68605 -6.00987 0
      vertex 4.31395 5.00987 0
      vertex 4.31395 -6.00987 0
    endloop
  endfacet
  facet normal 0 0 -1
    outer loop
      vertex 3.68605 -6.00987 0
      vertex 3.68605 5.00987 0
      vertex 4.31395 5.00987 0
    endloop
  endfacet
  facet normal 0 0 -1
    outer loop
      vertex 3.06309 -6.08856 0
      vertex 3.68605 5.00987 0
      vertex 3.68605 -6.00987 0
    endloop
  endfacet
  facet normal 0 0 -1
    outer loop
      vertex 3.06309 -6.08856 0
      vertex 3.06309 5.08856 0
      vertex 3.68605 5.00987 0
    endloop
  endfacet
  facet normal 0 0 -1
    outer loop
      vertex 3 -6.10476 0
      vertex 3.06309 5.08856 0
      vertex 3.06309 -6.08856 0
    endloop
  endfacet
  facet normal -0 0 -1
    outer loop
      vertex 3.06309 5.08856 0
      vertex 3 -6.10476 0
      vertex 3 5.10476 0
    endloop
  endfacet
  facet normal 0 0 -1
    outer loop
      vertex 8.96057 -10.3733 0
      vertex 12 -18 0
      vertex 9 -11 0
    endloop
  endfacet
  facet normal 0 0 -1
    outer loop
      vertex 12 -18 0
      vertex 8.96057 -11.6267 0
      vertex 9 -11 0
    endloop
  endfacet
  facet normal 0 0 -1
    outer loop
      vertex 12 -18 0
      vertex 8.84292 -12.2434 0
      vertex 8.96057 -11.6267 0
    endloop
  endfacet
  facet normal 0 0 -1
    outer loop
      vertex 12 -18 0
      vertex 8.64888 -12.8406 0
      vertex 8.84292 -12.2434 0
    endloop
  endfacet
  facet normal 0 0 -1
    outer loop
      vertex 12 -18 0
      vertex 8.38153 -13.4088 0
      vertex 8.64888 -12.8406 0
    endloop
  endfacet
  facet normal 0 0 -1
    outer loop
      vertex 12 -18 0
      vertex 8.04508 -13.9389 0
      vertex 8.38153 -13.4088 0
    endloop
  endfacet
  facet normal 0 0 -1
    outer loop
      vertex 12 -18 0
      vertex 7.64484 -14.4227 0
      vertex 8.04508 -13.9389 0
    endloop
  endfacet
  facet normal 0 0 -1
    outer loop
      vertex 12 -18 0
      vertex 7.18712 -14.8526 0
      vertex 7.64484 -14.4227 0
    endloop
  endfacet
  facet normal 0 0 -1
    outer loop
      vertex 12 -18 0
      vertex 6.67913 -15.2216 0
      vertex 7.18712 -14.8526 0
    endloop
  endfacet
  facet normal 0 0 -1
    outer loop
      vertex 12 -18 0
      vertex 6.1289 -15.5241 0
      vertex 6.67913 -15.2216 0
    endloop
  endfacet
  facet normal 0 0 -1
    outer loop
      vertex 12 -18 0
      vertex 5.54508 -15.7553 0
      vertex 6.1289 -15.5241 0
    endloop
  endfacet
  facet normal 0 0 -1
    outer loop
      vertex 3 -18 0
      vertex 5.54508 -15.7553 0
      vertex 12 -18 0
    endloop
  endfacet
  facet normal 0 0 -1
    outer loop
      vertex 5.54508 -15.7553 0
      vertex 3 -18 0
      vertex 4.93691 -15.9114 0
    endloop
  endfacet
  facet normal 0 0 -1
    outer loop
      vertex 4.93691 -15.9114 0
      vertex 3 -18 0
      vertex 4.31395 -15.9901 0
    endloop
  endfacet
  facet normal -0 0 -1
    outer loop
      vertex 4.31395 -15.9901 0
      vertex 3 -18 0
      vertex 3.68605 -15.9901 0
    endloop
  endfacet
  facet normal -0 0 -1
    outer loop
      vertex 3.68605 -15.9901 0
      vertex 3 -18 0
      vertex 3.06309 -15.9114 0
    endloop
  endfacet
  facet normal -0 0 -1
    outer loop
      vertex 3.06309 -15.9114 0
      vertex 3 -18 0
      vertex 3 -15.8952 0
    endloop
  endfacet
  facet normal 0 0 -1
    outer loop
      vertex 8.84292 -9.75655 0
      vertex 12 -18 0
      vertex 8.96057 -10.3733 0
    endloop
  endfacet
  facet normal 0 0 -1
    outer loop
      vertex 8.96057 10.6267 0
      vertex 12 17 0
      vertex 9 10 0
    endloop
  endfacet
  facet normal 0 0 -1
    outer loop
      vertex 8.84292 11.2434 0
      vertex 12 17 0
      vertex 8.96057 10.6267 0
    endloop
  endfacet
  facet normal 0 0 -1
    outer loop
      vertex 8.64888 11.8406 0
      vertex 12 17 0
      vertex 8.84292 11.2434 0
    endloop
  endfacet
  facet normal 0 0 -1
    outer loop
      vertex 8.38153 12.4088 0
      vertex 12 17 0
      vertex 8.64888 11.8406 0
    endloop
  endfacet
  facet normal 0 0 -1
    outer loop
      vertex 8.04508 12.9389 0
      vertex 12 17 0
      vertex 8.38153 12.4088 0
    endloop
  endfacet
  facet normal 0 0 -1
    outer loop
      vertex 7.64484 13.4227 0
      vertex 12 17 0
      vertex 8.04508 12.9389 0
    endloop
  endfacet
  facet normal 0 0 -1
    outer loop
      vertex 7.18712 13.8526 0
      vertex 12 17 0
      vertex 7.64484 13.4227 0
    endloop
  endfacet
  facet normal 0 0 -1
    outer loop
      vertex 6.67913 14.2216 0
      vertex 12 17 0
      vertex 7.18712 13.8526 0
    endloop
  endfacet
  facet normal 0 0 -1
    outer loop
      vertex 6.1289 14.5241 0
      vertex 12 17 0
      vertex 6.67913 14.2216 0
    endloop
  endfacet
  facet normal 0 0 -1
    outer loop
      vertex 5.54508 14.7553 0
      vertex 12 17 0
      vertex 6.1289 14.5241 0
    endloop
  endfacet
  facet normal 0 0 -1
    outer loop
      vertex 3 17 0
      vertex 5.54508 14.7553 0
      vertex 4.93691 14.9114 0
    endloop
  endfacet
  facet normal 0 0 -1
    outer loop
      vertex 3 17 0
      vertex 4.93691 14.9114 0
      vertex 4.31395 14.9901 0
    endloop
  endfacet
  facet normal 0 0 -1
    outer loop
      vertex 3 17 0
      vertex 4.31395 14.9901 0
      vertex 3.68605 14.9901 0
    endloop
  endfacet
  facet normal 0 0 -1
    outer loop
      vertex 3 17 0
      vertex 3.68605 14.9901 0
      vertex 3.06309 14.9114 0
    endloop
  endfacet
  facet normal 0 0 -1
    outer loop
      vertex 5.54508 14.7553 0
      vertex 3 17 0
      vertex 12 17 0
    endloop
  endfacet
  facet normal 0 0 -1
    outer loop
      vertex 3 17 0
      vertex 3.06309 14.9114 0
      vertex 3 14.8952 0
    endloop
  endfacet
  facet normal 0 -1 0
    outer loop
      vertex 3 -19 1.14214
      vertex 12 -19 9
      vertex 3 -19 9
    endloop
  endfacet
  facet normal 0 -1 -0
    outer loop
      vertex 12 -19 9
      vertex 3 -19 1.14214
      vertex 12 -19 1.14214
    endloop
  endfacet
  facet normal 1 -0 0
    outer loop
      vertex 12 -18 10
      vertex 12 5 3
      vertex 12 5 10
    endloop
  endfacet
  facet normal 1 0 0
    outer loop
      vertex 12 5 3
      vertex 12 -18 10
      vertex 12 -17.9289 0.0710678
    endloop
  endfacet
  facet normal 1 -0 0
    outer loop
      vertex 12 -19 9
      vertex 12 -17.9289 0.0710678
      vertex 12 -18 10
    endloop
  endfacet
  facet normal 1 0 0
    outer loop
      vertex 12 -17.9289 0.0710678
      vertex 12 -19 9
      vertex 12 -19 1.14214
    endloop
  endfacet
  facet normal 1 -0 0
    outer loop
      vertex 12 14 10
      vertex 12 18 9
      vertex 12 17 10
    endloop
  endfacet
  facet normal 1 0 0
    outer loop
      vertex 12 18 9
      vertex 12 14 3
      vertex 12 18 1.14214
    endloop
  endfacet
  facet normal 1 0 0
    outer loop
      vertex 12 18 9
      vertex 12 14 10
      vertex 12 14 3
    endloop
  endfacet
  facet normal 1 0 0
    outer loop
      vertex 12 18 1.14214
      vertex 12 14 3
      vertex 12 16.9289 0.0710678
    endloop
  endfacet
  facet normal 1 -0 0
    outer loop
      vertex 12 5 3
      vertex 12 16.9289 0.0710678
      vertex 12 14 3
    endloop
  endfacet
  facet normal 1 0 0
    outer loop
      vertex 12 16.9289 0.0710678
      vertex 12 5 3
      vertex 12 17 0
    endloop
  endfacet
  facet normal 1 0 0
    outer loop
      vertex 12 -18 0
      vertex 12 5 3
      vertex 12 -17.9289 0.0710678
    endloop
  endfacet
  facet normal 1 0 0
    outer loop
      vertex 12 5 3
      vertex 12 -18 0
      vertex 12 17 0
    endloop
  endfacet
  facet normal -0.998027 -0.0627909 0
    outer loop
      vertex 9 -11 0
      vertex 8.96057 -10.3733 10
      vertex 8.96057 -10.3733 0
    endloop
  endfacet
  facet normal -0.998027 -0.0627909 0
    outer loop
      vertex 8.96057 -10.3733 10
      vertex 9 -11 0
      vertex 9 -11 10
    endloop
  endfacet
  facet normal 0 -1 0
    outer loop
      vertex 3.68605 -6.00987 0
      vertex 4.31395 -6.00987 10
      vertex 3.68605 -6.00987 10
    endloop
  endfacet
  facet normal 0 -1 -0
    outer loop
      vertex 4.31395 -6.00987 10
      vertex 3.68605 -6.00987 0
      vertex 4.31395 -6.00987 0
    endloop
  endfacet
  facet normal 0 1 -0
    outer loop
      vertex 4.31395 -15.9901 0
      vertex 3.68605 -15.9901 10
      vertex 4.31395 -15.9901 10
    endloop
  endfacet
  facet normal 0 1 0
    outer loop
      vertex 3.68605 -15.9901 10
      vertex 4.31395 -15.9901 0
      vertex 3.68605 -15.9901 0
    endloop
  endfacet
  facet normal -0.684547 -0.728969 0
    outer loop
      vertex 7.18712 -7.14743 0
      vertex 7.64484 -7.57726 10
      vertex 7.18712 -7.14743 10
    endloop
  endfacet
  facet normal -0.684547 -0.728969 -0
    outer loop
      vertex 7.64484 -7.57726 10
      vertex 7.18712 -7.14743 0
      vertex 7.64484 -7.57726 0
    endloop
  endfacet
  facet normal -0.904827 -0.425779 0
    outer loop
      vertex 8.64888 -9.15938 0
      vertex 8.38153 -8.59123 10
      vertex 8.38153 -8.59123 0
    endloop
  endfacet
  facet normal -0.904827 -0.425779 0
    outer loop
      vertex 8.38153 -8.59123 10
      vertex 8.64888 -9.15938 0
      vertex 8.64888 -9.15938 10
    endloop
  endfacet
  facet normal -0.982287 -0.187381 0
    outer loop
      vertex 8.96057 -10.3733 0
      vertex 8.84292 -9.75655 10
      vertex 8.84292 -9.75655 0
    endloop
  endfacet
  facet normal -0.982287 -0.187381 0
    outer loop
      vertex 8.84292 -9.75655 10
      vertex 8.96057 -10.3733 0
      vertex 8.96057 -10.3733 10
    endloop
  endfacet
  facet normal -0.368126 -0.929776 0
    outer loop
      vertex 5.54508 -6.24472 0
      vertex 6.1289 -6.47586 10
      vertex 5.54508 -6.24472 10
    endloop
  endfacet
  facet normal -0.368126 -0.929776 -0
    outer loop
      vertex 6.1289 -6.47586 10
      vertex 5.54508 -6.24472 0
      vertex 6.1289 -6.47586 0
    endloop
  endfacet
  facet normal -0.24869 -0.968583 0
    outer loop
      vertex 4.93691 -6.08856 0
      vertex 5.54508 -6.24472 10
      vertex 4.93691 -6.08856 10
    endloop
  endfacet
  facet normal -0.24869 -0.968583 -0
    outer loop
      vertex 5.54508 -6.24472 10
      vertex 4.93691 -6.08856 0
      vertex 5.54508 -6.24472 0
    endloop
  endfacet
  facet normal -0.481754 -0.876307 0
    outer loop
      vertex 6.1289 -6.47586 0
      vertex 6.67913 -6.77836 10
      vertex 6.1289 -6.47586 10
    endloop
  endfacet
  facet normal -0.481754 -0.876307 -0
    outer loop
      vertex 6.67913 -6.77836 10
      vertex 6.1289 -6.47586 0
      vertex 6.67913 -6.77836 0
    endloop
  endfacet
  facet normal 0.24869 -0.968583 0
    outer loop
      vertex 3 -6.10476 0
      vertex 3.06309 -6.08856 10
      vertex 3 -6.10476 10
    endloop
  endfacet
  facet normal 0.24869 -0.968583 0
    outer loop
      vertex 3.06309 -6.08856 10
      vertex 3 -6.10476 0
      vertex 3.06309 -6.08856 0
    endloop
  endfacet
  facet normal -0.125333 0.992115 0
    outer loop
      vertex 4.93691 -15.9114 0
      vertex 4.31395 -15.9901 10
      vertex 4.93691 -15.9114 10
    endloop
  endfacet
  facet normal -0.125333 0.992115 0
    outer loop
      vertex 4.31395 -15.9901 10
      vertex 4.93691 -15.9114 0
      vertex 4.31395 -15.9901 0
    endloop
  endfacet
  facet normal -0.951056 -0.309018 0
    outer loop
      vertex 8.84292 -9.75655 0
      vertex 8.64888 -9.15938 10
      vertex 8.64888 -9.15938 0
    endloop
  endfacet
  facet normal -0.951056 -0.309018 0
    outer loop
      vertex 8.64888 -9.15938 10
      vertex 8.84292 -9.75655 0
      vertex 8.84292 -9.75655 10
    endloop
  endfacet
  facet normal -0.770513 -0.637424 0
    outer loop
      vertex 8.04508 -8.06107 0
      vertex 7.64484 -7.57726 10
      vertex 7.64484 -7.57726 0
    endloop
  endfacet
  facet normal -0.770513 -0.637424 0
    outer loop
      vertex 7.64484 -7.57726 10
      vertex 8.04508 -8.06107 0
      vertex 8.04508 -8.06107 10
    endloop
  endfacet
  facet normal -0.844329 -0.535826 0
    outer loop
      vertex 8.38153 -8.59123 0
      vertex 8.04508 -8.06107 10
      vertex 8.04508 -8.06107 0
    endloop
  endfacet
  facet normal -0.844329 -0.535826 0
    outer loop
      vertex 8.04508 -8.06107 10
      vertex 8.38153 -8.59123 0
      vertex 8.38153 -8.59123 10
    endloop
  endfacet
  facet normal -0.125333 -0.992115 0
    outer loop
      vertex 4.31395 -6.00987 0
      vertex 4.93691 -6.08856 10
      vertex 4.31395 -6.00987 10
    endloop
  endfacet
  facet normal -0.125333 -0.992115 -0
    outer loop
      vertex 4.93691 -6.08856 10
      vertex 4.31395 -6.00987 0
      vertex 4.93691 -6.08856 0
    endloop
  endfacet
  facet normal -0.587785 -0.809017 0
    outer loop
      vertex 6.67913 -6.77836 0
      vertex 7.18712 -7.14743 10
      vertex 6.67913 -6.77836 10
    endloop
  endfacet
  facet normal -0.587785 -0.809017 -0
    outer loop
      vertex 7.18712 -7.14743 10
      vertex 6.67913 -6.77836 0
      vertex 7.18712 -7.14743 0
    endloop
  endfacet
  facet normal 0.125333 -0.992115 0
    outer loop
      vertex 3.06309 -6.08856 0
      vertex 3.68605 -6.00987 10
      vertex 3.06309 -6.08856 10
    endloop
  endfacet
  facet normal 0.125333 -0.992115 0
    outer loop
      vertex 3.68605 -6.00987 10
      vertex 3.06309 -6.08856 0
      vertex 3.68605 -6.00987 0
    endloop
  endfacet
  facet normal -0.998027 0.062791 0
    outer loop
      vertex 8.96057 -11.6267 0
      vertex 9 -11 10
      vertex 9 -11 0
    endloop
  endfacet
  facet normal -0.998027 0.062791 0
    outer loop
      vertex 9 -11 10
      vertex 8.96057 -11.6267 0
      vertex 8.96057 -11.6267 10
    endloop
  endfacet
  facet normal -0.982287 0.187381 0
    outer loop
      vertex 8.84292 -12.2434 0
      vertex 8.96057 -11.6267 10
      vertex 8.96057 -11.6267 0
    endloop
  endfacet
  facet normal -0.982287 0.187381 0
    outer loop
      vertex 8.96057 -11.6267 10
      vertex 8.84292 -12.2434 0
      vertex 8.84292 -12.2434 10
    endloop
  endfacet
  facet normal -0.481754 0.876307 0
    outer loop
      vertex 6.67913 -15.2216 0
      vertex 6.1289 -15.5241 10
      vertex 6.67913 -15.2216 10
    endloop
  endfacet
  facet normal -0.481754 0.876307 0
    outer loop
      vertex 6.1289 -15.5241 10
      vertex 6.67913 -15.2216 0
      vertex 6.1289 -15.5241 0
    endloop
  endfacet
  facet normal -0.904827 0.425779 0
    outer loop
      vertex 8.38153 -13.4088 0
      vertex 8.64888 -12.8406 10
      vertex 8.64888 -12.8406 0
    endloop
  endfacet
  facet normal -0.904827 0.425779 0
    outer loop
      vertex 8.64888 -12.8406 10
      vertex 8.38153 -13.4088 0
      vertex 8.38153 -13.4088 10
    endloop
  endfacet
  facet normal -0.684547 0.728969 0
    outer loop
      vertex 7.64484 -14.4227 0
      vertex 7.18712 -14.8526 10
      vertex 7.64484 -14.4227 10
    endloop
  endfacet
  facet normal -0.684547 0.728969 0
    outer loop
      vertex 7.18712 -14.8526 10
      vertex 7.64484 -14.4227 0
      vertex 7.18712 -14.8526 0
    endloop
  endfacet
  facet normal -0.368126 0.929776 0
    outer loop
      vertex 6.1289 -15.5241 0
      vertex 5.54508 -15.7553 10
      vertex 6.1289 -15.5241 10
    endloop
  endfacet
  facet normal -0.368126 0.929776 0
    outer loop
      vertex 5.54508 -15.7553 10
      vertex 6.1289 -15.5241 0
      vertex 5.54508 -15.7553 0
    endloop
  endfacet
  facet normal -0.24869 0.968583 0
    outer loop
      vertex 5.54508 -15.7553 0
      vertex 4.93691 -15.9114 10
      vertex 5.54508 -15.7553 10
    endloop
  endfacet
  facet normal -0.24869 0.968583 0
    outer loop
      vertex 4.93691 -15.9114 10
      vertex 5.54508 -15.7553 0
      vertex 4.93691 -15.9114 0
    endloop
  endfacet
  facet normal -0.844329 0.535826 0
    outer loop
      vertex 8.04508 -13.9389 0
      vertex 8.38153 -13.4088 10
      vertex 8.38153 -13.4088 0
    endloop
  endfacet
  facet normal -0.844329 0.535826 0
    outer loop
      vertex 8.38153 -13.4088 10
      vertex 8.04508 -13.9389 0
      vertex 8.04508 -13.9389 10
    endloop
  endfacet
  facet normal -0.770513 0.637424 0
    outer loop
      vertex 7.64484 -14.4227 0
      vertex 8.04508 -13.9389 10
      vertex 8.04508 -13.9389 0
    endloop
  endfacet
  facet normal -0.770513 0.637424 0
    outer loop
      vertex 8.04508 -13.9389 10
      vertex 7.64484 -14.4227 0
      vertex 7.64484 -14.4227 10
    endloop
  endfacet
  facet normal -0.951056 0.309018 0
    outer loop
      vertex 8.64888 -12.8406 0
      vertex 8.84292 -12.2434 10
      vertex 8.84292 -12.2434 0
    endloop
  endfacet
  facet normal -0.951056 0.309018 0
    outer loop
      vertex 8.84292 -12.2434 10
      vertex 8.64888 -12.8406 0
      vertex 8.64888 -12.8406 10
    endloop
  endfacet
  facet normal 0.125333 0.992115 -0
    outer loop
      vertex 3.68605 -15.9901 0
      vertex 3.06309 -15.9114 10
      vertex 3.68605 -15.9901 10
    endloop
  endfacet
  facet normal 0.125333 0.992115 0
    outer loop
      vertex 3.06309 -15.9114 10
      vertex 3.68605 -15.9901 0
      vertex 3.06309 -15.9114 0
    endloop
  endfacet
  facet normal 0.248683 0.968585 -0
    outer loop
      vertex 3.06309 -15.9114 0
      vertex 3 -15.8952 10
      vertex 3.06309 -15.9114 10
    endloop
  endfacet
  facet normal 0.248683 0.968585 0
    outer loop
      vertex 3 -15.8952 10
      vertex 3.06309 -15.9114 0
      vertex 3 -15.8952 0
    endloop
  endfacet
  facet normal -0.587785 0.809017 0
    outer loop
      vertex 7.18712 -14.8526 0
      vertex 6.67913 -15.2216 10
      vertex 7.18712 -14.8526 10
    endloop
  endfacet
  facet normal -0.587785 0.809017 0
    outer loop
      vertex 6.67913 -15.2216 10
      vertex 7.18712 -14.8526 0
      vertex 6.67913 -15.2216 0
    endloop
  endfacet
  facet normal -0.844329 -0.535826 0
    outer loop
      vertex 8.38153 12.4088 0
      vertex 8.04508 12.9389 10
      vertex 8.04508 12.9389 0
    endloop
  endfacet
  facet normal -0.844329 -0.535826 0
    outer loop
      vertex 8.04508 12.9389 10
      vertex 8.38153 12.4088 0
      vertex 8.38153 12.4088 10
    endloop
  endfacet
  facet normal -0.368126 -0.929776 0
    outer loop
      vertex 5.54508 14.7553 0
      vertex 6.1289 14.5241 10
      vertex 5.54508 14.7553 10
    endloop
  endfacet
  facet normal -0.368126 -0.929776 -0
    outer loop
      vertex 6.1289 14.5241 10
      vertex 5.54508 14.7553 0
      vertex 6.1289 14.5241 0
    endloop
  endfacet
  facet normal -0.998027 0.0627909 0
    outer loop
      vertex 8.96057 9.37333 0
      vertex 9 10 10
      vertex 9 10 0
    endloop
  endfacet
  facet normal -0.998027 0.0627909 0
    outer loop
      vertex 9 10 10
      vertex 8.96057 9.37333 0
      vertex 8.96057 9.37333 10
    endloop
  endfacet
  facet normal -0.481754 0.876307 0
    outer loop
      vertex 6.67913 5.77836 0
      vertex 6.1289 5.47586 10
      vertex 6.67913 5.77836 10
    endloop
  endfacet
  facet normal -0.481754 0.876307 0
    outer loop
      vertex 6.1289 5.47586 10
      vertex 6.67913 5.77836 0
      vertex 6.1289 5.47586 0
    endloop
  endfacet
  facet normal -0.684547 -0.728969 0
    outer loop
      vertex 7.18712 13.8526 0
      vertex 7.64484 13.4227 10
      vertex 7.18712 13.8526 10
    endloop
  endfacet
  facet normal -0.684547 -0.728969 -0
    outer loop
      vertex 7.64484 13.4227 10
      vertex 7.18712 13.8526 0
      vertex 7.64484 13.4227 0
    endloop
  endfacet
  facet normal 0 -1 0
    outer loop
      vertex 3.68605 14.9901 0
      vertex 4.31395 14.9901 10
      vertex 3.68605 14.9901 10
    endloop
  endfacet
  facet normal 0 -1 -0
    outer loop
      vertex 4.31395 14.9901 10
      vertex 3.68605 14.9901 0
      vertex 4.31395 14.9901 0
    endloop
  endfacet
  facet normal 0.248683 -0.968585 0
    outer loop
      vertex 3 14.8952 0
      vertex 3.06309 14.9114 10
      vertex 3 14.8952 10
    endloop
  endfacet
  facet normal 0.248683 -0.968585 0
    outer loop
      vertex 3.06309 14.9114 10
      vertex 3 14.8952 0
      vertex 3.06309 14.9114 0
    endloop
  endfacet
  facet normal -0.998027 -0.062791 0
    outer loop
      vertex 9 10 0
      vertex 8.96057 10.6267 10
      vertex 8.96057 10.6267 0
    endloop
  endfacet
  facet normal -0.998027 -0.062791 0
    outer loop
      vertex 8.96057 10.6267 10
      vertex 9 10 0
      vertex 9 10 10
    endloop
  endfacet
  facet normal -0.951056 0.309018 0
    outer loop
      vertex 8.64888 8.15938 0
      vertex 8.84292 8.75655 10
      vertex 8.84292 8.75655 0
    endloop
  endfacet
  facet normal -0.951056 0.309018 0
    outer loop
      vertex 8.84292 8.75655 10
      vertex 8.64888 8.15938 0
      vertex 8.64888 8.15938 10
    endloop
  endfacet
  facet normal 0 1 -0
    outer loop
      vertex 4.31395 5.00987 0
      vertex 3.68605 5.00987 10
      vertex 4.31395 5.00987 10
    endloop
  endfacet
  facet normal 0 1 0
    outer loop
      vertex 3.68605 5.00987 10
      vertex 4.31395 5.00987 0
      vertex 3.68605 5.00987 0
    endloop
  endfacet
  facet normal -0.368126 0.929776 0
    outer loop
      vertex 6.1289 5.47586 0
      vertex 5.54508 5.24472 10
      vertex 6.1289 5.47586 10
    endloop
  endfacet
  facet normal -0.368126 0.929776 0
    outer loop
      vertex 5.54508 5.24472 10
      vertex 6.1289 5.47586 0
      vertex 5.54508 5.24472 0
    endloop
  endfacet
  facet normal -0.770513 -0.637424 0
    outer loop
      vertex 8.04508 12.9389 0
      vertex 7.64484 13.4227 10
      vertex 7.64484 13.4227 0
    endloop
  endfacet
  facet normal -0.770513 -0.637424 0
    outer loop
      vertex 7.64484 13.4227 10
      vertex 8.04508 12.9389 0
      vertex 8.04508 12.9389 10
    endloop
  endfacet
  facet normal 0.125333 -0.992115 0
    outer loop
      vertex 3.06309 14.9114 0
      vertex 3.68605 14.9901 10
      vertex 3.06309 14.9114 10
    endloop
  endfacet
  facet normal 0.125333 -0.992115 0
    outer loop
      vertex 3.68605 14.9901 10
      vertex 3.06309 14.9114 0
      vertex 3.68605 14.9901 0
    endloop
  endfacet
  facet normal -0.24869 -0.968583 0
    outer loop
      vertex 4.93691 14.9114 0
      vertex 5.54508 14.7553 10
      vertex 4.93691 14.9114 10
    endloop
  endfacet
  facet normal -0.24869 -0.968583 -0
    outer loop
      vertex 5.54508 14.7553 10
      vertex 4.93691 14.9114 0
      vertex 5.54508 14.7553 0
    endloop
  endfacet
  facet normal -0.125333 -0.992115 0
    outer loop
      vertex 4.31395 14.9901 0
      vertex 4.93691 14.9114 10
      vertex 4.31395 14.9901 10
    endloop
  endfacet
  facet normal -0.125333 -0.992115 -0
    outer loop
      vertex 4.93691 14.9114 10
      vertex 4.31395 14.9901 0
      vertex 4.93691 14.9114 0
    endloop
  endfacet
  facet normal -0.587785 -0.809017 0
    outer loop
      vertex 6.67913 14.2216 0
      vertex 7.18712 13.8526 10
      vertex 6.67913 14.2216 10
    endloop
  endfacet
  facet normal -0.587785 -0.809017 -0
    outer loop
      vertex 7.18712 13.8526 10
      vertex 6.67913 14.2216 0
      vertex 7.18712 13.8526 0
    endloop
  endfacet
  facet normal -0.481754 -0.876307 0
    outer loop
      vertex 6.1289 14.5241 0
      vertex 6.67913 14.2216 10
      vertex 6.1289 14.5241 10
    endloop
  endfacet
  facet normal -0.481754 -0.876307 -0
    outer loop
      vertex 6.67913 14.2216 10
      vertex 6.1289 14.5241 0
      vertex 6.67913 14.2216 0
    endloop
  endfacet
  facet normal -0.982287 0.187381 0
    outer loop
      vertex 8.84292 8.75655 0
      vertex 8.96057 9.37333 10
      vertex 8.96057 9.37333 0
    endloop
  endfacet
  facet normal -0.982287 0.187381 0
    outer loop
      vertex 8.96057 9.37333 10
      vertex 8.84292 8.75655 0
      vertex 8.84292 8.75655 10
    endloop
  endfacet
  facet normal -0.24869 0.968583 0
    outer loop
      vertex 5.54508 5.24472 0
      vertex 4.93691 5.08856 10
      vertex 5.54508 5.24472 10
    endloop
  endfacet
  facet normal -0.24869 0.968583 0
    outer loop
      vertex 4.93691 5.08856 10
      vertex 5.54508 5.24472 0
      vertex 4.93691 5.08856 0
    endloop
  endfacet
  facet normal -0.904827 -0.425779 0
    outer loop
      vertex 8.64888 11.8406 0
      vertex 8.38153 12.4088 10
      vertex 8.38153 12.4088 0
    endloop
  endfacet
  facet normal -0.904827 -0.425779 0
    outer loop
      vertex 8.38153 12.4088 10
      vertex 8.64888 11.8406 0
      vertex 8.64888 11.8406 10
    endloop
  endfacet
  facet normal -0.951056 -0.309018 0
    outer loop
      vertex 8.84292 11.2434 0
      vertex 8.64888 11.8406 10
      vertex 8.64888 11.8406 0
    endloop
  endfacet
  facet normal -0.951056 -0.309018 0
    outer loop
      vertex 8.64888 11.8406 10
      vertex 8.84292 11.2434 0
      vertex 8.84292 11.2434 10
    endloop
  endfacet
  facet normal -0.982287 -0.187381 0
    outer loop
      vertex 8.96057 10.6267 0
      vertex 8.84292 11.2434 10
      vertex 8.84292 11.2434 0
    endloop
  endfacet
  facet normal -0.982287 -0.187381 0
    outer loop
      vertex 8.84292 11.2434 10
      vertex 8.96057 10.6267 0
      vertex 8.96057 10.6267 10
    endloop
  endfacet
  facet normal -0.587785 0.809017 0
    outer loop
      vertex 7.18712 6.14743 0
      vertex 6.67913 5.77836 10
      vertex 7.18712 6.14743 10
    endloop
  endfacet
  facet normal -0.587785 0.809017 0
    outer loop
      vertex 6.67913 5.77836 10
      vertex 7.18712 6.14743 0
      vertex 6.67913 5.77836 0
    endloop
  endfacet
  facet normal -0.770513 0.637424 0
    outer loop
      vertex 7.64484 6.57726 0
      vertex 8.04508 7.06107 10
      vertex 8.04508 7.06107 0
    endloop
  endfacet
  facet normal -0.770513 0.637424 0
    outer loop
      vertex 8.04508 7.06107 10
      vertex 7.64484 6.57726 0
      vertex 7.64484 6.57726 10
    endloop
  endfacet
  facet normal -0.844329 0.535826 0
    outer loop
      vertex 8.04508 7.06107 0
      vertex 8.38153 7.59123 10
      vertex 8.38153 7.59123 0
    endloop
  endfacet
  facet normal -0.844329 0.535826 0
    outer loop
      vertex 8.38153 7.59123 10
      vertex 8.04508 7.06107 0
      vertex 8.04508 7.06107 10
    endloop
  endfacet
  facet normal -0.684547 0.728969 0
    outer loop
      vertex 7.64484 6.57726 0
      vertex 7.18712 6.14743 10
      vertex 7.64484 6.57726 10
    endloop
  endfacet
  facet normal -0.684547 0.728969 0
    outer loop
      vertex 7.18712 6.14743 10
      vertex 7.64484 6.57726 0
      vertex 7.18712 6.14743 0
    endloop
  endfacet
  facet normal -0.904827 0.425779 0
    outer loop
      vertex 8.38153 7.59123 0
      vertex 8.64888 8.15938 10
      vertex 8.64888 8.15938 0
    endloop
  endfacet
  facet normal -0.904827 0.425779 0
    outer loop
      vertex 8.64888 8.15938 10
      vertex 8.38153 7.59123 0
      vertex 8.38153 7.59123 10
    endloop
  endfacet
  facet normal -0.125333 0.992115 0
    outer loop
      vertex 4.93691 5.08856 0
      vertex 4.31395 5.00987 10
      vertex 4.93691 5.08856 10
    endloop
  endfacet
  facet normal -0.125333 0.992115 0
    outer loop
      vertex 4.31395 5.00987 10
      vertex 4.93691 5.08856 0
      vertex 4.31395 5.00987 0
    endloop
  endfacet
  facet normal 0.24869 0.968583 -0
    outer loop
      vertex 3.06309 5.08856 0
      vertex 3 5.10476 10
      vertex 3.06309 5.08856 10
    endloop
  endfacet
  facet normal 0.24869 0.968583 0
    outer loop
      vertex 3 5.10476 10
      vertex 3.06309 5.08856 0
      vertex 3 5.10476 0
    endloop
  endfacet
  facet normal 0.125333 0.992115 -0
    outer loop
      vertex 3.68605 5.00987 0
      vertex 3.06309 5.08856 10
      vertex 3.68605 5.00987 10
    endloop
  endfacet
  facet normal 0.125333 0.992115 0
    outer loop
      vertex 3.06309 5.08856 10
      vertex 3.68605 5.00987 0
      vertex 3.06309 5.08856 0
    endloop
  endfacet
  facet normal 1 -0 0
    outer loop
      vertex 10 5 10
      vertex 10 14 3
      vertex 10 14 10
    endloop
  endfacet
  facet normal 1 0 0
    outer loop
      vertex 10 14 3
      vertex 10 5 10
      vertex 10 5 3
    endloop
  endfacet
  facet normal 0 -1 0
    outer loop
      vertex 10 14 3
      vertex 12 14 10
      vertex 10 14 10
    endloop
  endfacet
  facet normal 0 -1 -0
    outer loop
      vertex 12 14 10
      vertex 10 14 3
      vertex 12 14 3
    endloop
  endfacet
  facet normal -0 0 1
    outer loop
      vertex 10 14 3
      vertex 12 5 3
      vertex 12 14 3
    endloop
  endfacet
  facet normal 0 0 1
    outer loop
      vertex 12 5 3
      vertex 10 14 3
      vertex 10 5 3
    endloop
  endfacet
  facet normal 0 1 -0
    outer loop
      vertex 12 5 3
      vertex 10 5 10
      vertex 12 5 10
    endloop
  endfacet
  facet normal 0 1 0
    outer loop
      vertex 10 5 10
      vertex 12 5 3
      vertex 10 5 3
    endloop
  endfacet
  facet normal 0 0.707107 0.707106
    outer loop
      vertex 12 18 9
      vertex 3 17 10
      vertex 12 17 10
    endloop
  endfacet
  facet normal 0 0.707107 0.707106
    outer loop
      vertex 3 17 10
      vertex 12 18 9
      vertex 3 18 9
    endloop
  endfacet
  facet normal 0 0.707107 -0.707107
    outer loop
      vertex 12 16.9289 0.0710678
      vertex 3 18 1.14214
      vertex 12 18 1.14214
    endloop
  endfacet
  facet normal 0 0.707107 -0.707107
    outer loop
      vertex 3 18 1.14214
      vertex 12 16.9289 0.0710678
      vertex 3 16.9289 0.0710678
    endloop
  endfacet
  facet normal 0 0.707107 0.707107
    outer loop
      vertex 12 17 0
      vertex 3 16.9289 0.0710678
      vertex 12 16.9289 0.0710678
    endloop
  endfacet
  facet normal 0 0.707107 0.707107
    outer loop
      vertex 3 16.9289 0.0710678
      vertex 12 17 0
      vertex 3 17 0
    endloop
  endfacet
  facet normal 0 -0.707107 0.707106
    outer loop
      vertex 3 -19 9
      vertex 12 -18 10
      vertex 3 -18 10
    endloop
  endfacet
  facet normal 0 -0.707107 0.707106
    outer loop
      vertex 12 -18 10
      vertex 3 -19 9
      vertex 12 -19 9
    endloop
  endfacet
  facet normal 0 -0.707107 -0.707107
    outer loop
      vertex 3 -17.9289 0.0710678
      vertex 12 -19 1.14214
      vertex 3 -19 1.14214
    endloop
  endfacet
  facet normal 0 -0.707107 -0.707107
    outer loop
      vertex 12 -19 1.14214
      vertex 3 -17.9289 0.0710678
      vertex 12 -17.9289 0.0710678
    endloop
  endfacet
  facet normal 0 -0.707107 0.707107
    outer loop
      vertex 3 -18 0
      vertex 12 -17.9289 0.0710678
      vertex 3 -17.9289 0.0710678
    endloop
  endfacet
  facet normal 0 -0.707107 0.707107
    outer loop
      vertex 12 -17.9289 0.0710678
      vertex 3 -18 0
      vertex 12 -18 0
    endloop
  endfacet
endsolid OpenSCAD_Model
