solid OpenSCAD_Model
  facet normal 0 -0.917755 0.397148
    outer loop
      vertex -4 -8.36799 11.3131
      vertex 8.50878e-16 -8.14344 11.832
      vertex -4 -8.14344 11.832
    endloop
  endfacet
  facet normal 0 -0.917755 0.397148
    outer loop
      vertex 8.50878e-16 -8.14344 11.832
      vertex -4 -8.36799 11.3131
      vertex 7.35661e-16 -8.36799 11.3131
    endloop
  endfacet
  facet normal 0 -0.917755 0.397148
    outer loop
      vertex -19 -8.36799 11.3131
      vertex -15 -8.14344 11.832
      vertex -19 -8.14344 11.832
    endloop
  endfacet
  facet normal 0 -0.917755 0.397148
    outer loop
      vertex -15 -8.14344 11.832
      vertex -19 -8.36799 11.3131
      vertex -15 -8.36799 11.3131
    endloop
  endfacet
  facet normal 0 -0.975917 0.218143
    outer loop
      vertex -4 -8.84058 9.68643
      vertex 4.96982e-16 -8.71725 10.2382
      vertex -4 -8.71725 10.2382
    endloop
  endfacet
  facet normal 0 -0.975917 0.218143
    outer loop
      vertex 4.96982e-16 -8.71725 10.2382
      vertex -4 -8.84058 9.68643
      vertex 3.74463e-16 -8.84058 9.68643
    endloop
  endfacet
  facet normal 0 -0.975917 0.218143
    outer loop
      vertex -19 -8.84058 9.68643
      vertex -15 -8.71725 10.2382
      vertex -19 -8.71725 10.2382
    endloop
  endfacet
  facet normal 0 -0.975917 0.218143
    outer loop
      vertex -15 -8.71725 10.2382
      vertex -19 -8.84058 9.68643
      vertex -15 -8.84058 9.68643
    endloop
  endfacet
  facet normal 0 -0.960294 0.278991
    outer loop
      vertex -4 -8.71725 10.2382
      vertex 6.1754e-16 -8.55951 10.7812
      vertex -4 -8.55951 10.7812
    endloop
  endfacet
  facet normal 0 -0.960294 0.278991
    outer loop
      vertex 6.1754e-16 -8.55951 10.7812
      vertex -4 -8.71725 10.2382
      vertex 4.96982e-16 -8.71725 10.2382
    endloop
  endfacet
  facet normal 0 -0.960294 0.278991
    outer loop
      vertex -19 -8.71725 10.2382
      vertex -15 -8.55951 10.7812
      vertex -19 -8.55951 10.7812
    endloop
  endfacet
  facet normal 0 -0.960294 0.278991
    outer loop
      vertex -15 -8.55951 10.7812
      vertex -19 -8.71725 10.2382
      vertex -15 -8.71725 10.2382
    endloop
  endfacet
  facet normal 0 -0.827081 0.562083
    outer loop
      vertex -19 -7.59895 12.8224
      vertex -15 -7.28115 13.2901
      vertex -19 -7.28115 13.2901
    endloop
  endfacet
  facet normal 0 -0.827081 0.562083
    outer loop
      vertex -15 -7.28115 13.2901
      vertex -19 -7.59895 12.8224
      vertex -15 -7.59895 12.8224
    endloop
  endfacet
  facet normal 0 -0.827081 0.562083
    outer loop
      vertex -4 -7.59895 12.8224
      vertex 1.17463e-15 -7.28115 13.2901
      vertex -4 -7.28115 13.2901
    endloop
  endfacet
  facet normal 0 -0.827081 0.562083
    outer loop
      vertex 1.17463e-15 -7.28115 13.2901
      vertex -4 -7.59895 12.8224
      vertex 1.0708e-15 -7.59895 12.8224
    endloop
  endfacet
  facet normal 0 -0.790155 0.612907
    outer loop
      vertex -19 -7.28115 13.2901
      vertex -15 -6.93462 13.7368
      vertex -19 -6.93462 13.7368
    endloop
  endfacet
  facet normal 0 -0.790155 0.612907
    outer loop
      vertex -15 -6.93462 13.7368
      vertex -19 -7.28115 13.2901
      vertex -15 -7.28115 13.2901
    endloop
  endfacet
  facet normal 0 -0.790155 0.612907
    outer loop
      vertex -4 -7.28115 13.2901
      vertex 1.27383e-15 -6.93462 13.7368
      vertex -4 -6.93462 13.7368
    endloop
  endfacet
  facet normal 0 -0.790155 0.612907
    outer loop
      vertex 1.27383e-15 -6.93462 13.7368
      vertex -4 -7.28115 13.2901
      vertex 1.17463e-15 -7.28115 13.2901
    endloop
  endfacet
  facet normal 0 -0.891007 0.45399
    outer loop
      vertex -4 -8.14344 11.832
      vertex 9.62737e-16 -7.88676 12.3358
      vertex -4 -7.88676 12.3358
    endloop
  endfacet
  facet normal 0 -0.891007 0.45399
    outer loop
      vertex 9.62737e-16 -7.88676 12.3358
      vertex -4 -8.14344 11.832
      vertex 8.50878e-16 -8.14344 11.832
    endloop
  endfacet
  facet normal 0 -0.891007 0.45399
    outer loop
      vertex -19 -8.14344 11.832
      vertex -15 -7.88676 12.3358
      vertex -19 -7.88676 12.3358
    endloop
  endfacet
  facet normal 0 -0.891007 0.45399
    outer loop
      vertex -15 -7.88676 12.3358
      vertex -19 -8.14344 11.832
      vertex -15 -8.14344 11.832
    endloop
  endfacet
  facet normal 0 -0.453992 0.891006
    outer loop
      vertex -4 -3.83201 16.1434
      vertex 1.75121e-15 -4.33578 15.8868
      vertex 1.80821e-15 -3.83201 16.1434
    endloop
  endfacet
  facet normal 0 -0.453992 0.891006
    outer loop
      vertex 1.75121e-15 -4.33578 15.8868
      vertex -4 -3.83201 16.1434
      vertex -4 -4.33578 15.8868
    endloop
  endfacet
  facet normal 0 -0.453992 0.891006
    outer loop
      vertex -19 -3.83201 16.1434
      vertex -15 -4.33578 15.8868
      vertex -15 -3.83201 16.1434
    endloop
  endfacet
  facet normal 0 -0.453992 0.891006
    outer loop
      vertex -15 -4.33578 15.8868
      vertex -19 -3.83201 16.1434
      vertex -19 -4.33578 15.8868
    endloop
  endfacet
  facet normal 1 0 -2.22045e-16
    outer loop
      vertex 9.35528e-16 23.5353 12.2132
      vertex 1.53979e-15 25.7368 14.9346
      vertex 1.61674e-15 25.2901 15.2812
    endloop
  endfacet
  facet normal 1 0 -2.22045e-16
    outer loop
      vertex 9.35528e-16 23.5353 12.2132
      vertex 1.61674e-15 25.2901 15.2812
      vertex 1.68731e-15 24.8224 15.599
    endloop
  endfacet
  facet normal 1 0 -2.22045e-16
    outer loop
      vertex 1.53979e-15 25.7368 14.9346
      vertex 6.10623e-16 24.7631 10.75
      vertex 2.12067e-16 25.4164 8.95506
    endloop
  endfacet
  facet normal 1 0 -2.22045e-16
    outer loop
      vertex 9.35528e-16 23.5353 12.2132
      vertex 1.68731e-15 24.8224 15.599
      vertex 1.75121e-15 24.3358 15.8868
    endloop
  endfacet
  facet normal 1 -2.87892e-22 -2.22044e-16
    outer loop
      vertex 1.1476e-15 21.8811 13.1683
      vertex 1.75121e-15 24.3358 15.8868
      vertex 1.80821e-15 23.832 16.1434
    endloop
  endfacet
  facet normal 1 0 -2.22045e-16
    outer loop
      vertex 1.53979e-15 25.7368 14.9346
      vertex 9.35528e-16 23.5353 12.2132
      vertex 6.10623e-16 24.7631 10.75
    endloop
  endfacet
  facet normal 1 2.39925e-23 -2.22045e-16
    outer loop
      vertex 1.1476e-15 21.8811 13.1683
      vertex 1.80821e-15 23.832 16.1434
      vertex 1.85807e-15 23.3131 16.368
    endloop
  endfacet
  facet normal 1 2.05203e-23 -2.22045e-16
    outer loop
      vertex 1.1476e-15 21.8811 13.1683
      vertex 1.85807e-15 23.3131 16.368
      vertex 1.90059e-15 22.7812 16.5595
    endloop
  endfacet
  facet normal 1 7.4104e-22 -2.22045e-16
    outer loop
      vertex 1.1476e-15 21.8811 13.1683
      vertex 1.90059e-15 22.7812 16.5595
      vertex 1.93562e-15 22.2382 16.7172
    endloop
  endfacet
  facet normal 1 0 -2.22045e-16
    outer loop
      vertex 1.75121e-15 24.3358 15.8868
      vertex 1.1476e-15 21.8811 13.1683
      vertex 9.35528e-16 23.5353 12.2132
    endloop
  endfacet
  facet normal 1 -1.3044e-23 -2.22045e-16
    outer loop
      vertex 1.963e-15 21.6864 16.8406
      vertex 1.1476e-15 21.8811 13.1683
      vertex 1.93562e-15 22.2382 16.7172
    endloop
  endfacet
  facet normal 1 -3.60422e-22 -2.22044e-16
    outer loop
      vertex 1.22125e-15 20 13.5
      vertex 1.963e-15 21.6864 16.8406
      vertex 1.98264e-15 21.128 16.929
    endloop
  endfacet
  facet normal 1 3.64856e-22 -2.22045e-16
    outer loop
      vertex 1.22125e-15 20 13.5
      vertex 1.98264e-15 21.128 16.929
      vertex 1.99446e-15 20.5651 16.9822
    endloop
  endfacet
  facet normal 1 -3.74718e-22 -2.22045e-16
    outer loop
      vertex 1.22125e-15 20 13.5
      vertex 1.99446e-15 20.5651 16.9822
      vertex 1.9984e-15 20 17
    endloop
  endfacet
  facet normal 1 -1.02637e-23 -2.22045e-16
    outer loop
      vertex 1.963e-15 21.6864 16.8406
      vertex 1.22125e-15 20 13.5
      vertex 1.1476e-15 21.8811 13.1683
    endloop
  endfacet
  facet normal 1 0 -2.22045e-16
    outer loop
      vertex 1.9984e-15 20 17
      vertex 1.1476e-15 18.1189 13.1683
      vertex 1.22125e-15 20 13.5
    endloop
  endfacet
  facet normal 1 0 -2.22045e-16
    outer loop
      vertex 1.9984e-15 20 17
      vertex 9.35528e-16 16.4647 12.2132
      vertex 1.1476e-15 18.1189 13.1683
    endloop
  endfacet
  facet normal 1 0 -2.22045e-16
    outer loop
      vertex 1.9984e-15 0 17
      vertex 9.35528e-16 16.4647 12.2132
      vertex 1.9984e-15 20 17
    endloop
  endfacet
  facet normal 1 0 -2.22045e-16
    outer loop
      vertex 2.12067e-16 14.5836 8.95506
      vertex 1.9984e-16 1.55885 8.9
      vertex -2.12067e-16 14.5836 7.04494
    endloop
  endfacet
  facet normal 1 0 -2.22045e-16
    outer loop
      vertex 6.10622e-16 15.2369 10.75
      vertex 1.9984e-16 1.55885 8.9
      vertex 2.12067e-16 14.5836 8.95506
    endloop
  endfacet
  facet normal 1 0 -2.22045e-16
    outer loop
      vertex 9.35528e-16 16.4647 12.2132
      vertex 1.9984e-15 0 17
      vertex 6.10622e-16 15.2369 10.75
    endloop
  endfacet
  facet normal 1 0 -2.22045e-16
    outer loop
      vertex 6.10622e-16 15.2369 10.75
      vertex 1.9984e-15 0 17
      vertex 1.9984e-16 1.55885 8.9
    endloop
  endfacet
  facet normal 1 0 -2.22045e-16
    outer loop
      vertex 1.9984e-15 0 17
      vertex 3.9968e-16 0 9.8
      vertex 1.9984e-16 1.55885 8.9
    endloop
  endfacet
  facet normal 1 3.74718e-22 -2.22045e-16
    outer loop
      vertex 1.99446e-15 -0.565114 16.9822
      vertex 3.9968e-16 0 9.8
      vertex 1.9984e-15 0 17
    endloop
  endfacet
  facet normal 1 -3.70658e-22 -2.22045e-16
    outer loop
      vertex 1.98264e-15 -1.128 16.929
      vertex 3.9968e-16 0 9.8
      vertex 1.99446e-15 -0.565114 16.9822
    endloop
  endfacet
  facet normal 1 3.6993e-22 -2.22045e-16
    outer loop
      vertex 1.963e-15 -1.68643 16.8406
      vertex 3.9968e-16 0 9.8
      vertex 1.98264e-15 -1.128 16.929
    endloop
  endfacet
  facet normal 1 -7.04881e-22 -2.22045e-16
    outer loop
      vertex 1.90059e-15 -2.78115 16.5595
      vertex 3.9968e-16 0 9.8
      vertex 1.93562e-15 -2.23821 16.7172
    endloop
  endfacet
  facet normal 1 6.38129e-24 -2.22045e-16
    outer loop
      vertex 1.93562e-15 -2.23821 16.7172
      vertex 3.9968e-16 0 9.8
      vertex 1.963e-15 -1.68643 16.8406
    endloop
  endfacet
  facet normal 1 0 -2.22045e-16
    outer loop
      vertex 2.12067e-16 25.4164 8.95506
      vertex 0 29 8
      vertex 1.25481e-16 28.9822 8.56511
    endloop
  endfacet
  facet normal 1 0 -2.22045e-16
    outer loop
      vertex 2.12067e-16 25.4164 8.95506
      vertex 1.25481e-16 28.9822 8.56511
      vertex 2.50466e-16 28.929 9.128
    endloop
  endfacet
  facet normal 1 0 -2.22045e-16
    outer loop
      vertex 2.12067e-16 25.4164 8.95506
      vertex 2.50466e-16 28.929 9.128
      vertex 3.74463e-16 28.8406 9.68643
    endloop
  endfacet
  facet normal 1 0 -2.22045e-16
    outer loop
      vertex 2.12067e-16 25.4164 8.95506
      vertex 3.74463e-16 28.8406 9.68643
      vertex 4.96982e-16 28.7172 10.2382
    endloop
  endfacet
  facet normal 1 0 -2.22045e-16
    outer loop
      vertex 2.12067e-16 25.4164 8.95506
      vertex 4.96982e-16 28.7172 10.2382
      vertex 6.1754e-16 28.5595 10.7812
    endloop
  endfacet
  facet normal 1 0 -2.22045e-16
    outer loop
      vertex 2.12067e-16 25.4164 8.95506
      vertex 6.1754e-16 28.5595 10.7812
      vertex 7.35661e-16 28.368 11.3131
    endloop
  endfacet
  facet normal 1 0 -2.22045e-16
    outer loop
      vertex 2.12067e-16 25.4164 8.95506
      vertex 7.35661e-16 28.368 11.3131
      vertex 8.50878e-16 28.1434 11.832
    endloop
  endfacet
  facet normal 1 0 -2.22045e-16
    outer loop
      vertex 2.12067e-16 25.4164 8.95506
      vertex 8.50878e-16 28.1434 11.832
      vertex 9.62737e-16 27.8868 12.3358
    endloop
  endfacet
  facet normal 1 0 -2.22045e-16
    outer loop
      vertex 2.12067e-16 25.4164 8.95506
      vertex 9.62737e-16 27.8868 12.3358
      vertex 1.0708e-15 27.5989 12.8224
    endloop
  endfacet
  facet normal 1 0 -2.22045e-16
    outer loop
      vertex 2.12067e-16 25.4164 8.95506
      vertex 1.0708e-15 27.5989 12.8224
      vertex 1.17463e-15 27.2812 13.2901
    endloop
  endfacet
  facet normal 1 0 -2.22045e-16
    outer loop
      vertex 2.12067e-16 25.4164 8.95506
      vertex 1.17463e-15 27.2812 13.2901
      vertex 1.27383e-15 26.9346 13.7368
    endloop
  endfacet
  facet normal 1 0 -2.22045e-16
    outer loop
      vertex 2.12067e-16 25.4164 8.95506
      vertex 1.27383e-15 26.9346 13.7368
      vertex 1.368e-15 26.5607 14.1609
    endloop
  endfacet
  facet normal 1 0 -2.22045e-16
    outer loop
      vertex 2.12067e-16 25.4164 8.95506
      vertex 1.368e-15 26.5607 14.1609
      vertex 1.45677e-15 26.1609 14.5607
    endloop
  endfacet
  facet normal 1 0 -2.22045e-16
    outer loop
      vertex 2.12067e-16 25.4164 8.95506
      vertex 1.45677e-15 26.1609 14.5607
      vertex 1.53979e-15 25.7368 14.9346
    endloop
  endfacet
  facet normal 1 0 -2.22045e-16
    outer loop
      vertex 0 29 8
      vertex 2.12067e-16 25.4164 8.95506
      vertex -2.12067e-16 25.4164 7.04494
    endloop
  endfacet
  facet normal 1 0 -2.22045e-16
    outer loop
      vertex 0 29 8
      vertex -2.12067e-16 25.4164 7.04494
      vertex -6.10622e-16 24.7631 5.25
    endloop
  endfacet
  facet normal 1 0 -2.22045e-16
    outer loop
      vertex 0 29 8
      vertex -6.10622e-16 24.7631 5.25
      vertex -1.9984e-15 29 -1
    endloop
  endfacet
  facet normal 1 0 -2.22045e-16
    outer loop
      vertex -9.35528e-16 23.5353 3.78676
      vertex -1.9984e-15 29 -1
      vertex -6.10622e-16 24.7631 5.25
    endloop
  endfacet
  facet normal 1 0 -2.22045e-16
    outer loop
      vertex -1.1476e-15 21.8811 2.83169
      vertex -1.9984e-15 29 -1
      vertex -9.35528e-16 23.5353 3.78676
    endloop
  endfacet
  facet normal 1 0 -2.22045e-16
    outer loop
      vertex -1.22125e-15 20 2.5
      vertex -1.9984e-15 29 -1
      vertex -1.1476e-15 21.8811 2.83169
    endloop
  endfacet
  facet normal 1 0 -2.22045e-16
    outer loop
      vertex -1.1476e-15 18.1189 2.83169
      vertex -1.9984e-15 29 -1
      vertex -1.22125e-15 20 2.5
    endloop
  endfacet
  facet normal 1 0 -2.22045e-16
    outer loop
      vertex -1.9984e-16 1.55885 7.1
      vertex -2.12067e-16 14.5836 7.04494
      vertex 1.9984e-16 1.55885 8.9
    endloop
  endfacet
  facet normal 1 0 -2.22045e-16
    outer loop
      vertex -2.12067e-16 14.5836 7.04494
      vertex -1.9984e-16 1.55885 7.1
      vertex -6.10623e-16 15.2369 5.25
    endloop
  endfacet
  facet normal 1 0 -2.22045e-16
    outer loop
      vertex -6.10623e-16 15.2369 5.25
      vertex -1.9984e-16 1.55885 7.1
      vertex -9.35528e-16 16.4647 3.78676
    endloop
  endfacet
  facet normal 1 0 -2.22045e-16
    outer loop
      vertex -3.9968e-16 0 6.2
      vertex -9.35528e-16 16.4647 3.78676
      vertex -1.9984e-16 1.55885 7.1
    endloop
  endfacet
  facet normal 1 0 -2.22045e-16
    outer loop
      vertex -1.9984e-15 -9 -1
      vertex -9.35528e-16 16.4647 3.78676
      vertex -3.9968e-16 0 6.2
    endloop
  endfacet
  facet normal 1 0 -2.22045e-16
    outer loop
      vertex -9.35528e-16 16.4647 3.78676
      vertex -1.9984e-15 -9 -1
      vertex -1.1476e-15 18.1189 2.83169
    endloop
  endfacet
  facet normal 1 -9.82346e-24 -2.22045e-16
    outer loop
      vertex 1.85807e-15 -3.31312 16.368
      vertex 3.9968e-16 0 9.8
      vertex 1.90059e-15 -2.78115 16.5595
    endloop
  endfacet
  facet normal 1 -1.1452e-23 -2.22045e-16
    outer loop
      vertex 1.80821e-15 -3.83201 16.1434
      vertex 3.9968e-16 0 9.8
      vertex 1.85807e-15 -3.31312 16.368
    endloop
  endfacet
  facet normal 1 3.0841e-22 -2.22044e-16
    outer loop
      vertex 1.75121e-15 -4.33578 15.8868
      vertex 3.9968e-16 0 9.8
      vertex 1.80821e-15 -3.83201 16.1434
    endloop
  endfacet
  facet normal 1 0 -2.22045e-16
    outer loop
      vertex 3.9968e-16 0 9.8
      vertex 1.75121e-15 -4.33578 15.8868
      vertex 1.9984e-16 -1.55885 8.9
    endloop
  endfacet
  facet normal 1 0 -2.22045e-16
    outer loop
      vertex 1.68731e-15 -4.82244 15.599
      vertex 1.9984e-16 -1.55885 8.9
      vertex 1.75121e-15 -4.33578 15.8868
    endloop
  endfacet
  facet normal 1 0 -2.22045e-16
    outer loop
      vertex 1.61674e-15 -5.29007 15.2812
      vertex 1.9984e-16 -1.55885 8.9
      vertex 1.68731e-15 -4.82244 15.599
    endloop
  endfacet
  facet normal 1 0 -2.22045e-16
    outer loop
      vertex 1.53979e-15 -5.73682 14.9346
      vertex 1.9984e-16 -1.55885 8.9
      vertex 1.61674e-15 -5.29007 15.2812
    endloop
  endfacet
  facet normal 1 0 -2.22045e-16
    outer loop
      vertex 1.45677e-15 -6.16092 14.5607
      vertex 1.9984e-16 -1.55885 8.9
      vertex 1.53979e-15 -5.73682 14.9346
    endloop
  endfacet
  facet normal 1 0 -2.22045e-16
    outer loop
      vertex 1.368e-15 -6.56072 14.1609
      vertex 1.9984e-16 -1.55885 8.9
      vertex 1.45677e-15 -6.16092 14.5607
    endloop
  endfacet
  facet normal 1 0 -2.22045e-16
    outer loop
      vertex 1.27383e-15 -6.93462 13.7368
      vertex 1.9984e-16 -1.55885 8.9
      vertex 1.368e-15 -6.56072 14.1609
    endloop
  endfacet
  facet normal 1 0 -2.22045e-16
    outer loop
      vertex 1.17463e-15 -7.28115 13.2901
      vertex 1.9984e-16 -1.55885 8.9
      vertex 1.27383e-15 -6.93462 13.7368
    endloop
  endfacet
  facet normal 1 0 -2.22045e-16
    outer loop
      vertex 1.0708e-15 -7.59895 12.8224
      vertex 1.9984e-16 -1.55885 8.9
      vertex 1.17463e-15 -7.28115 13.2901
    endloop
  endfacet
  facet normal 1 0 -2.22045e-16
    outer loop
      vertex 9.62737e-16 -7.88676 12.3358
      vertex 1.9984e-16 -1.55885 8.9
      vertex 1.0708e-15 -7.59895 12.8224
    endloop
  endfacet
  facet normal 1 0 -2.22045e-16
    outer loop
      vertex 8.50878e-16 -8.14344 11.832
      vertex 1.9984e-16 -1.55885 8.9
      vertex 9.62737e-16 -7.88676 12.3358
    endloop
  endfacet
  facet normal 1 0 -2.22045e-16
    outer loop
      vertex 7.35661e-16 -8.36799 11.3131
      vertex 1.9984e-16 -1.55885 8.9
      vertex 8.50878e-16 -8.14344 11.832
    endloop
  endfacet
  facet normal 1 0 -2.22045e-16
    outer loop
      vertex 6.1754e-16 -8.55951 10.7812
      vertex 1.9984e-16 -1.55885 8.9
      vertex 7.35661e-16 -8.36799 11.3131
    endloop
  endfacet
  facet normal 1 0 -2.22045e-16
    outer loop
      vertex 4.96982e-16 -8.71725 10.2382
      vertex 1.9984e-16 -1.55885 8.9
      vertex 6.1754e-16 -8.55951 10.7812
    endloop
  endfacet
  facet normal 1 0 -2.22045e-16
    outer loop
      vertex 3.74463e-16 -8.84058 9.68643
      vertex 1.9984e-16 -1.55885 8.9
      vertex 4.96982e-16 -8.71725 10.2382
    endloop
  endfacet
  facet normal 1 0 -2.22045e-16
    outer loop
      vertex 2.50466e-16 -8.92903 9.128
      vertex 1.9984e-16 -1.55885 8.9
      vertex 3.74463e-16 -8.84058 9.68643
    endloop
  endfacet
  facet normal 1 0 -2.22045e-16
    outer loop
      vertex 1.25481e-16 -8.98224 8.56511
      vertex 1.9984e-16 -1.55885 8.9
      vertex 2.50466e-16 -8.92903 9.128
    endloop
  endfacet
  facet normal 1 0 -2.22045e-16
    outer loop
      vertex 0 -9 8
      vertex 1.9984e-16 -1.55885 8.9
      vertex 1.25481e-16 -8.98224 8.56511
    endloop
  endfacet
  facet normal 1 0 -2.22045e-16
    outer loop
      vertex 1.9984e-16 -1.55885 8.9
      vertex 0 -9 8
      vertex -1.9984e-16 -1.55885 7.1
    endloop
  endfacet
  facet normal 1 0 -2.22045e-16
    outer loop
      vertex -1.9984e-15 -9 -1
      vertex -1.9984e-16 -1.55885 7.1
      vertex 0 -9 8
    endloop
  endfacet
  facet normal 1 0 -2.22045e-16
    outer loop
      vertex -1.9984e-16 -1.55885 7.1
      vertex -1.9984e-15 -9 -1
      vertex -3.9968e-16 0 6.2
    endloop
  endfacet
  facet normal 1 0 -2.22045e-16
    outer loop
      vertex -1.1476e-15 18.1189 2.83169
      vertex -1.9984e-15 -9 -1
      vertex -1.9984e-15 29 -1
    endloop
  endfacet
  facet normal -1 0 0
    outer loop
      vertex -19 24.7631 5.25
      vertex -19 29 8
      vertex -19 29 -1
    endloop
  endfacet
  facet normal -1 0 -0
    outer loop
      vertex -19 25.4164 7.04494
      vertex -19 29 8
      vertex -19 24.7631 5.25
    endloop
  endfacet
  facet normal -1 0 0
    outer loop
      vertex -19 25.4164 8.95506
      vertex -19 29 8
      vertex -19 25.4164 7.04494
    endloop
  endfacet
  facet normal -1 0 0
    outer loop
      vertex -19 28.9822 8.56511
      vertex -19 25.4164 8.95506
      vertex -19 28.929 9.128
    endloop
  endfacet
  facet normal -1 -0 0
    outer loop
      vertex -19 28.929 9.128
      vertex -19 25.4164 8.95506
      vertex -19 28.8406 9.68643
    endloop
  endfacet
  facet normal -1 -0 0
    outer loop
      vertex -19 28.8406 9.68643
      vertex -19 25.4164 8.95506
      vertex -19 28.7172 10.2382
    endloop
  endfacet
  facet normal -1 -0 0
    outer loop
      vertex -19 28.7172 10.2382
      vertex -19 25.4164 8.95506
      vertex -19 28.5595 10.7812
    endloop
  endfacet
  facet normal -1 -0 0
    outer loop
      vertex -19 28.5595 10.7812
      vertex -19 25.4164 8.95506
      vertex -19 28.368 11.3131
    endloop
  endfacet
  facet normal -1 0 0
    outer loop
      vertex -19 24.7631 10.75
      vertex -19 28.368 11.3131
      vertex -19 25.4164 8.95506
    endloop
  endfacet
  facet normal -1 -0 0
    outer loop
      vertex -19 28.368 11.3131
      vertex -19 24.7631 10.75
      vertex -19 28.1434 11.832
    endloop
  endfacet
  facet normal -1 -0 0
    outer loop
      vertex -19 28.1434 11.832
      vertex -19 24.7631 10.75
      vertex -19 27.8868 12.3358
    endloop
  endfacet
  facet normal -1 -0 0
    outer loop
      vertex -19 27.8868 12.3358
      vertex -19 24.7631 10.75
      vertex -19 27.5989 12.8224
    endloop
  endfacet
  facet normal -1 -0 0
    outer loop
      vertex -19 27.2812 13.2901
      vertex -19 24.7631 10.75
      vertex -19 26.9346 13.7368
    endloop
  endfacet
  facet normal -1 0 0
    outer loop
      vertex -19 23.5353 12.2132
      vertex -19 26.9346 13.7368
      vertex -19 24.7631 10.75
    endloop
  endfacet
  facet normal -1 -0 0
    outer loop
      vertex -19 27.5989 12.8224
      vertex -19 24.7631 10.75
      vertex -19 27.2812 13.2901
    endloop
  endfacet
  facet normal -1 0 0
    outer loop
      vertex -19 29 8
      vertex -19 25.4164 8.95506
      vertex -19 28.9822 8.56511
    endloop
  endfacet
  facet normal -1 0 0
    outer loop
      vertex -19 29 -1
      vertex -19 23.5353 3.78676
      vertex -19 24.7631 5.25
    endloop
  endfacet
  facet normal -1 0 0
    outer loop
      vertex -19 29 -1
      vertex -19 21.8811 2.83169
      vertex -19 23.5353 3.78676
    endloop
  endfacet
  facet normal -1 0 0
    outer loop
      vertex -19 29 -1
      vertex -19 20 2.5
      vertex -19 21.8811 2.83169
    endloop
  endfacet
  facet normal -1 0 0
    outer loop
      vertex -19 29 -1
      vertex -19 18.1189 2.83169
      vertex -19 20 2.5
    endloop
  endfacet
  facet normal -1 0 0
    outer loop
      vertex -19 14.5836 7.04494
      vertex -19 1.55885 7.1
      vertex -19 14.5836 8.95506
    endloop
  endfacet
  facet normal -1 0 0
    outer loop
      vertex -19 15.2369 5.25
      vertex -19 1.55885 7.1
      vertex -19 14.5836 7.04494
    endloop
  endfacet
  facet normal -1 0 0
    outer loop
      vertex -19 16.4647 3.78676
      vertex -19 1.55885 7.1
      vertex -19 15.2369 5.25
    endloop
  endfacet
  facet normal -1 0 0
    outer loop
      vertex -19 -9 -1
      vertex -19 16.4647 3.78676
      vertex -19 18.1189 2.83169
    endloop
  endfacet
  facet normal -1 0 0
    outer loop
      vertex -19 -9 -1
      vertex -19 18.1189 2.83169
      vertex -19 29 -1
    endloop
  endfacet
  facet normal -1 0 0
    outer loop
      vertex -19 16.4647 3.78676
      vertex -19 0 6.2
      vertex -19 1.55885 7.1
    endloop
  endfacet
  facet normal -1 0 0
    outer loop
      vertex -19 -9 8
      vertex -19 -1.55885 8.9
      vertex -19 -1.55885 7.1
    endloop
  endfacet
  facet normal -1 0 0
    outer loop
      vertex -19 -1.55885 8.9
      vertex -19 -2.23821 16.7172
      vertex -19 -1.68643 16.8406
    endloop
  endfacet
  facet normal -1 0 0
    outer loop
      vertex -19 -1.55885 8.9
      vertex -19 -2.78115 16.5595
      vertex -19 -2.23821 16.7172
    endloop
  endfacet
  facet normal -1 0 0
    outer loop
      vertex -19 -1.55885 8.9
      vertex -19 -3.31312 16.368
      vertex -19 -2.78115 16.5595
    endloop
  endfacet
  facet normal -1 0 0
    outer loop
      vertex -19 -1.55885 8.9
      vertex -19 -3.83201 16.1434
      vertex -19 -3.31312 16.368
    endloop
  endfacet
  facet normal -1 0 0
    outer loop
      vertex -19 -1.55885 8.9
      vertex -19 -4.33578 15.8868
      vertex -19 -3.83201 16.1434
    endloop
  endfacet
  facet normal -1 0 0
    outer loop
      vertex -19 -1.55885 8.9
      vertex -19 -4.82244 15.599
      vertex -19 -4.33578 15.8868
    endloop
  endfacet
  facet normal -1 0 0
    outer loop
      vertex -19 -1.55885 8.9
      vertex -19 -5.29007 15.2812
      vertex -19 -4.82244 15.599
    endloop
  endfacet
  facet normal -1 0 0
    outer loop
      vertex -19 -1.55885 8.9
      vertex -19 -5.73682 14.9346
      vertex -19 -5.29007 15.2812
    endloop
  endfacet
  facet normal -1 0 0
    outer loop
      vertex -19 -1.55885 8.9
      vertex -19 -6.16092 14.5607
      vertex -19 -5.73682 14.9346
    endloop
  endfacet
  facet normal -1 0 0
    outer loop
      vertex -19 -1.55885 8.9
      vertex -19 -6.56072 14.1609
      vertex -19 -6.16092 14.5607
    endloop
  endfacet
  facet normal -1 0 0
    outer loop
      vertex -19 -1.55885 8.9
      vertex -19 -6.93462 13.7368
      vertex -19 -6.56072 14.1609
    endloop
  endfacet
  facet normal -1 0 0
    outer loop
      vertex -19 -1.55885 8.9
      vertex -19 -7.28115 13.2901
      vertex -19 -6.93462 13.7368
    endloop
  endfacet
  facet normal -1 0 0
    outer loop
      vertex -19 -1.55885 8.9
      vertex -19 -7.59895 12.8224
      vertex -19 -7.28115 13.2901
    endloop
  endfacet
  facet normal -1 0 0
    outer loop
      vertex -19 -1.55885 8.9
      vertex -19 -7.88676 12.3358
      vertex -19 -7.59895 12.8224
    endloop
  endfacet
  facet normal -1 0 0
    outer loop
      vertex -19 -1.55885 8.9
      vertex -19 -8.14344 11.832
      vertex -19 -7.88676 12.3358
    endloop
  endfacet
  facet normal -1 0 0
    outer loop
      vertex -19 -1.55885 8.9
      vertex -19 -8.36799 11.3131
      vertex -19 -8.14344 11.832
    endloop
  endfacet
  facet normal -1 0 0
    outer loop
      vertex -19 -1.55885 8.9
      vertex -19 -8.55951 10.7812
      vertex -19 -8.36799 11.3131
    endloop
  endfacet
  facet normal -1 0 0
    outer loop
      vertex -19 -9 -1
      vertex -19 -1.55885 7.1
      vertex -19 0 6.2
    endloop
  endfacet
  facet normal -1 0 0
    outer loop
      vertex -19 -1.55885 8.9
      vertex -19 -8.71725 10.2382
      vertex -19 -8.55951 10.7812
    endloop
  endfacet
  facet normal -1 0 0
    outer loop
      vertex -19 -1.55885 8.9
      vertex -19 -8.84058 9.68643
      vertex -19 -8.71725 10.2382
    endloop
  endfacet
  facet normal -1 0 0
    outer loop
      vertex -19 -1.55885 8.9
      vertex -19 -8.92903 9.128
      vertex -19 -8.84058 9.68643
    endloop
  endfacet
  facet normal -1 -0 0
    outer loop
      vertex -19 -1.55885 8.9
      vertex -19 -8.98224 8.56511
      vertex -19 -8.92903 9.128
    endloop
  endfacet
  facet normal -1 -0 0
    outer loop
      vertex -19 16.4647 3.78676
      vertex -19 -9 -1
      vertex -19 0 6.2
    endloop
  endfacet
  facet normal -1 -0 0
    outer loop
      vertex -19 -1.55885 7.1
      vertex -19 -9 -1
      vertex -19 -9 8
    endloop
  endfacet
  facet normal -1 0 0
    outer loop
      vertex -19 -1.55885 8.9
      vertex -19 -9 8
      vertex -19 -8.98224 8.56511
    endloop
  endfacet
  facet normal -1 -0 0
    outer loop
      vertex -19 26.9346 13.7368
      vertex -19 23.5353 12.2132
      vertex -19 26.5607 14.1609
    endloop
  endfacet
  facet normal -1 -0 0
    outer loop
      vertex -19 26.5607 14.1609
      vertex -19 23.5353 12.2132
      vertex -19 26.1609 14.5607
    endloop
  endfacet
  facet normal -1 -0 0
    outer loop
      vertex -19 26.1609 14.5607
      vertex -19 23.5353 12.2132
      vertex -19 25.7368 14.9346
    endloop
  endfacet
  facet normal -1 -0 0
    outer loop
      vertex -19 25.7368 14.9346
      vertex -19 23.5353 12.2132
      vertex -19 25.2901 15.2812
    endloop
  endfacet
  facet normal -1 -0 0
    outer loop
      vertex -19 25.2901 15.2812
      vertex -19 23.5353 12.2132
      vertex -19 24.8224 15.599
    endloop
  endfacet
  facet normal -1 -0 0
    outer loop
      vertex -19 24.8224 15.599
      vertex -19 23.5353 12.2132
      vertex -19 24.3358 15.8868
    endloop
  endfacet
  facet normal -1 0 0
    outer loop
      vertex -19 21.8811 13.1683
      vertex -19 24.3358 15.8868
      vertex -19 23.5353 12.2132
    endloop
  endfacet
  facet normal -1 -0 0
    outer loop
      vertex -19 24.3358 15.8868
      vertex -19 21.8811 13.1683
      vertex -19 23.832 16.1434
    endloop
  endfacet
  facet normal -1 -0 0
    outer loop
      vertex -19 23.832 16.1434
      vertex -19 21.8811 13.1683
      vertex -19 23.3131 16.368
    endloop
  endfacet
  facet normal -1 -0 0
    outer loop
      vertex -19 23.3131 16.368
      vertex -19 21.8811 13.1683
      vertex -19 22.7812 16.5595
    endloop
  endfacet
  facet normal -1 -0 0
    outer loop
      vertex -19 22.7812 16.5595
      vertex -19 21.8811 13.1683
      vertex -19 22.2382 16.7172
    endloop
  endfacet
  facet normal -1 0 0
    outer loop
      vertex -19 21.8811 13.1683
      vertex -19 21.6864 16.8406
      vertex -19 22.2382 16.7172
    endloop
  endfacet
  facet normal -1 0 0
    outer loop
      vertex -19 20 13.5
      vertex -19 21.6864 16.8406
      vertex -19 21.8811 13.1683
    endloop
  endfacet
  facet normal -1 -0 0
    outer loop
      vertex -19 21.6864 16.8406
      vertex -19 20 13.5
      vertex -19 21.128 16.929
    endloop
  endfacet
  facet normal -1 -0 0
    outer loop
      vertex -19 21.128 16.929
      vertex -19 20 13.5
      vertex -19 20.5651 16.9822
    endloop
  endfacet
  facet normal -1 0 0
    outer loop
      vertex -19 20 13.5
      vertex -19 20 17
      vertex -19 20.5651 16.9822
    endloop
  endfacet
  facet normal -1 0 0
    outer loop
      vertex -19 18.1189 13.1683
      vertex -19 20 17
      vertex -19 20 13.5
    endloop
  endfacet
  facet normal -1 0 0
    outer loop
      vertex -19 16.4647 12.2132
      vertex -19 20 17
      vertex -19 18.1189 13.1683
    endloop
  endfacet
  facet normal -1 0 0
    outer loop
      vertex -19 0 17
      vertex -19 16.4647 12.2132
      vertex -19 15.2369 10.75
    endloop
  endfacet
  facet normal -1 0 0
    outer loop
      vertex -19 1.55885 8.9
      vertex -19 14.5836 8.95506
      vertex -19 1.55885 7.1
    endloop
  endfacet
  facet normal -1 -0 0
    outer loop
      vertex -19 14.5836 8.95506
      vertex -19 1.55885 8.9
      vertex -19 15.2369 10.75
    endloop
  endfacet
  facet normal -1 0 0
    outer loop
      vertex -19 0 17
      vertex -19 15.2369 10.75
      vertex -19 1.55885 8.9
    endloop
  endfacet
  facet normal -1 0 0
    outer loop
      vertex -19 0 17
      vertex -19 1.55885 8.9
      vertex -19 0 9.8
    endloop
  endfacet
  facet normal -1 0 0
    outer loop
      vertex -19 16.4647 12.2132
      vertex -19 0 17
      vertex -19 20 17
    endloop
  endfacet
  facet normal -1 0 0
    outer loop
      vertex -19 0 9.8
      vertex -19 -0.565114 16.9822
      vertex -19 0 17
    endloop
  endfacet
  facet normal -1 0 0
    outer loop
      vertex -19 0 9.8
      vertex -19 -1.128 16.929
      vertex -19 -0.565114 16.9822
    endloop
  endfacet
  facet normal -1 0 0
    outer loop
      vertex -19 -1.68643 16.8406
      vertex -19 0 9.8
      vertex -19 -1.55885 8.9
    endloop
  endfacet
  facet normal -1 0 0
    outer loop
      vertex -19 0 9.8
      vertex -19 -1.68643 16.8406
      vertex -19 -1.128 16.929
    endloop
  endfacet
  facet normal 0 -0.031414 0.999506
    outer loop
      vertex -19 0 17
      vertex -15 -0.565114 16.9822
      vertex -15 0 17
    endloop
  endfacet
  facet normal 4.76602e-07 -0.0314106 0.999507
    outer loop
      vertex -15 -0.565114 16.9822
      vertex -19 0 17
      vertex -19 -0.565114 16.9822
    endloop
  endfacet
  facet normal 0 -0.031414 0.999506
    outer loop
      vertex -4 0 17
      vertex 1.99446e-15 -0.565114 16.9822
      vertex 1.9984e-15 0 17
    endloop
  endfacet
  facet normal 0 -0.031414 0.999506
    outer loop
      vertex 1.99446e-15 -0.565114 16.9822
      vertex -4 0 17
      vertex -4 -0.565114 16.9822
    endloop
  endfacet
  facet normal 0 -0.999507 0.0314123
    outer loop
      vertex -19 -9 8
      vertex -15 -8.98224 8.56511
      vertex -19 -8.98224 8.56511
    endloop
  endfacet
  facet normal 0 -0.999507 0.0314123
    outer loop
      vertex -15 -8.98224 8.56511
      vertex -19 -9 8
      vertex -15 -9 8
    endloop
  endfacet
  facet normal 0 -0.999507 0.0314123
    outer loop
      vertex -4 -9 8
      vertex 1.25481e-16 -8.98224 8.56511
      vertex -4 -8.98224 8.56511
    endloop
  endfacet
  facet normal 0 -0.999507 0.0314123
    outer loop
      vertex 1.25481e-16 -8.98224 8.56511
      vertex -4 -9 8
      vertex 0 -9 8
    endloop
  endfacet
  facet normal 0 -0.987688 0.156434
    outer loop
      vertex -4 -8.92903 9.128
      vertex 3.74463e-16 -8.84058 9.68643
      vertex -4 -8.84058 9.68643
    endloop
  endfacet
  facet normal 0 -0.987688 0.156434
    outer loop
      vertex 3.74463e-16 -8.84058 9.68643
      vertex -4 -8.92903 9.128
      vertex 2.50466e-16 -8.92903 9.128
    endloop
  endfacet
  facet normal 0 -0.987688 0.156434
    outer loop
      vertex -19 -8.92903 9.128
      vertex -15 -8.84058 9.68643
      vertex -19 -8.84058 9.68643
    endloop
  endfacet
  facet normal 0 -0.987688 0.156434
    outer loop
      vertex -15 -8.84058 9.68643
      vertex -19 -8.92903 9.128
      vertex -15 -8.92903 9.128
    endloop
  endfacet
  facet normal 0 -0.940881 0.338739
    outer loop
      vertex -4 -8.55951 10.7812
      vertex 7.35661e-16 -8.36799 11.3131
      vertex -4 -8.36799 11.3131
    endloop
  endfacet
  facet normal 0 -0.940881 0.338739
    outer loop
      vertex 7.35661e-16 -8.36799 11.3131
      vertex -4 -8.55951 10.7812
      vertex 6.1754e-16 -8.55951 10.7812
    endloop
  endfacet
  facet normal 0 -0.940881 0.338739
    outer loop
      vertex -19 -8.55951 10.7812
      vertex -15 -8.36799 11.3131
      vertex -19 -8.36799 11.3131
    endloop
  endfacet
  facet normal 0 -0.940881 0.338739
    outer loop
      vertex -15 -8.36799 11.3131
      vertex -19 -8.55951 10.7812
      vertex -15 -8.55951 10.7812
    endloop
  endfacet
  facet normal 0 -0.750111 0.661312
    outer loop
      vertex -4 -6.93462 13.7368
      vertex 1.368e-15 -6.56072 14.1609
      vertex -4 -6.56072 14.1609
    endloop
  endfacet
  facet normal 0 -0.750111 0.661312
    outer loop
      vertex 1.368e-15 -6.56072 14.1609
      vertex -4 -6.93462 13.7368
      vertex 1.27383e-15 -6.93462 13.7368
    endloop
  endfacet
  facet normal 0 -0.750111 0.661312
    outer loop
      vertex -19 -6.93462 13.7368
      vertex -15 -6.56072 14.1609
      vertex -19 -6.56072 14.1609
    endloop
  endfacet
  facet normal 0 -0.750111 0.661312
    outer loop
      vertex -15 -6.56072 14.1609
      vertex -19 -6.93462 13.7368
      vertex -15 -6.93462 13.7368
    endloop
  endfacet
  facet normal 0 -0.860742 0.509042
    outer loop
      vertex -4 -7.88676 12.3358
      vertex 1.0708e-15 -7.59895 12.8224
      vertex -4 -7.59895 12.8224
    endloop
  endfacet
  facet normal 0 -0.860742 0.509042
    outer loop
      vertex 1.0708e-15 -7.59895 12.8224
      vertex -4 -7.88676 12.3358
      vertex 9.62737e-16 -7.88676 12.3358
    endloop
  endfacet
  facet normal 0 -0.860742 0.509042
    outer loop
      vertex -19 -7.88676 12.3358
      vertex -15 -7.59895 12.8224
      vertex -19 -7.59895 12.8224
    endloop
  endfacet
  facet normal 0 -0.860742 0.509042
    outer loop
      vertex -15 -7.59895 12.8224
      vertex -19 -7.88676 12.3358
      vertex -15 -7.88676 12.3358
    endloop
  endfacet
  facet normal 0 -0.661312 0.750111
    outer loop
      vertex -4 -5.73682 14.9346
      vertex 1.45677e-15 -6.16092 14.5607
      vertex 1.53979e-15 -5.73682 14.9346
    endloop
  endfacet
  facet normal 0 -0.661312 0.750111
    outer loop
      vertex 1.45677e-15 -6.16092 14.5607
      vertex -4 -5.73682 14.9346
      vertex -4 -6.16092 14.5607
    endloop
  endfacet
  facet normal 0 -0.661312 0.750111
    outer loop
      vertex -19 -5.73682 14.9346
      vertex -15 -6.16092 14.5607
      vertex -15 -5.73682 14.9346
    endloop
  endfacet
  facet normal 0 -0.661312 0.750111
    outer loop
      vertex -15 -6.16092 14.5607
      vertex -19 -5.73682 14.9346
      vertex -19 -6.16092 14.5607
    endloop
  endfacet
  facet normal 0 -0.562083 0.827081
    outer loop
      vertex -4 -4.82244 15.599
      vertex 1.61674e-15 -5.29007 15.2812
      vertex 1.68731e-15 -4.82244 15.599
    endloop
  endfacet
  facet normal 0 -0.562083 0.827081
    outer loop
      vertex 1.61674e-15 -5.29007 15.2812
      vertex -4 -4.82244 15.599
      vertex -4 -5.29007 15.2812
    endloop
  endfacet
  facet normal 0 -0.562083 0.827081
    outer loop
      vertex -19 -4.82244 15.599
      vertex -15 -5.29007 15.2812
      vertex -15 -4.82244 15.599
    endloop
  endfacet
  facet normal 0 -0.562083 0.827081
    outer loop
      vertex -15 -5.29007 15.2812
      vertex -19 -4.82244 15.599
      vertex -19 -5.29007 15.2812
    endloop
  endfacet
  facet normal 0 -0.397148 0.917755
    outer loop
      vertex -4 -3.31312 16.368
      vertex 1.80821e-15 -3.83201 16.1434
      vertex 1.85807e-15 -3.31312 16.368
    endloop
  endfacet
  facet normal 0 -0.397148 0.917755
    outer loop
      vertex 1.80821e-15 -3.83201 16.1434
      vertex -4 -3.31312 16.368
      vertex -4 -3.83201 16.1434
    endloop
  endfacet
  facet normal 0 -0.397148 0.917755
    outer loop
      vertex -19 -3.31312 16.368
      vertex -15 -3.83201 16.1434
      vertex -15 -3.31312 16.368
    endloop
  endfacet
  facet normal 0 -0.397148 0.917755
    outer loop
      vertex -15 -3.83201 16.1434
      vertex -19 -3.31312 16.368
      vertex -19 -3.83201 16.1434
    endloop
  endfacet
  facet normal 0 -0.156435 0.987688
    outer loop
      vertex -4 -1.128 16.929
      vertex 1.963e-15 -1.68643 16.8406
      vertex 1.98264e-15 -1.128 16.929
    endloop
  endfacet
  facet normal 0 -0.156435 0.987688
    outer loop
      vertex 1.963e-15 -1.68643 16.8406
      vertex -4 -1.128 16.929
      vertex -4 -1.68643 16.8406
    endloop
  endfacet
  facet normal 0 -0.156435 0.987688
    outer loop
      vertex -19 -1.128 16.929
      vertex -15 -1.68643 16.8406
      vertex -15 -1.128 16.929
    endloop
  endfacet
  facet normal 4.70967e-07 -0.156432 0.987689
    outer loop
      vertex -15 -1.68643 16.8406
      vertex -19 -1.128 16.929
      vertex -19 -1.68643 16.8406
    endloop
  endfacet
  facet normal 0 -0.278988 0.960295
    outer loop
      vertex -4 -2.23821 16.7172
      vertex 1.90059e-15 -2.78115 16.5595
      vertex 1.93562e-15 -2.23821 16.7172
    endloop
  endfacet
  facet normal 0 -0.278988 0.960295
    outer loop
      vertex 1.90059e-15 -2.78115 16.5595
      vertex -4 -2.23821 16.7172
      vertex -4 -2.78115 16.5595
    endloop
  endfacet
  facet normal 4.57904e-07 -0.278988 0.960295
    outer loop
      vertex -19 -2.23821 16.7172
      vertex -15 -2.78115 16.5595
      vertex -15 -2.23821 16.7172
    endloop
  endfacet
  facet normal 0 -0.278991 0.960294
    outer loop
      vertex -15 -2.78115 16.5595
      vertex -19 -2.23821 16.7172
      vertex -19 -2.78115 16.5595
    endloop
  endfacet
  facet normal 0 -0.995562 0.0941085
    outer loop
      vertex -4 -8.98224 8.56511
      vertex 2.50466e-16 -8.92903 9.128
      vertex -4 -8.92903 9.128
    endloop
  endfacet
  facet normal 0 -0.995562 0.0941085
    outer loop
      vertex 2.50466e-16 -8.92903 9.128
      vertex -4 -8.98224 8.56511
      vertex 1.25481e-16 -8.98224 8.56511
    endloop
  endfacet
  facet normal 0 -0.995562 0.0941085
    outer loop
      vertex -19 -8.98224 8.56511
      vertex -15 -8.92903 9.128
      vertex -19 -8.92903 9.128
    endloop
  endfacet
  facet normal 0 -0.995562 0.0941085
    outer loop
      vertex -15 -8.92903 9.128
      vertex -19 -8.98224 8.56511
      vertex -15 -8.98224 8.56511
    endloop
  endfacet
  facet normal 0 -0.707107 0.707107
    outer loop
      vertex -4 -6.56072 14.1609
      vertex 1.45677e-15 -6.16092 14.5607
      vertex -4 -6.16092 14.5607
    endloop
  endfacet
  facet normal 0 -0.707107 0.707107
    outer loop
      vertex 1.45677e-15 -6.16092 14.5607
      vertex -4 -6.56072 14.1609
      vertex 1.368e-15 -6.56072 14.1609
    endloop
  endfacet
  facet normal 0 -0.707107 0.707107
    outer loop
      vertex -19 -6.56072 14.1609
      vertex -15 -6.16092 14.5607
      vertex -19 -6.16092 14.5607
    endloop
  endfacet
  facet normal 0 -0.707107 0.707107
    outer loop
      vertex -15 -6.16092 14.5607
      vertex -19 -6.56072 14.1609
      vertex -15 -6.56072 14.1609
    endloop
  endfacet
  facet normal 0 -0.612907 0.790155
    outer loop
      vertex -4 -5.29007 15.2812
      vertex 1.53979e-15 -5.73682 14.9346
      vertex 1.61674e-15 -5.29007 15.2812
    endloop
  endfacet
  facet normal 0 -0.612907 0.790155
    outer loop
      vertex 1.53979e-15 -5.73682 14.9346
      vertex -4 -5.29007 15.2812
      vertex -4 -5.73682 14.9346
    endloop
  endfacet
  facet normal 0 -0.612907 0.790155
    outer loop
      vertex -19 -5.29007 15.2812
      vertex -15 -5.73682 14.9346
      vertex -15 -5.29007 15.2812
    endloop
  endfacet
  facet normal 0 -0.612907 0.790155
    outer loop
      vertex -15 -5.73682 14.9346
      vertex -19 -5.29007 15.2812
      vertex -19 -5.73682 14.9346
    endloop
  endfacet
  facet normal 0 -0.509042 0.860742
    outer loop
      vertex -4 -4.33578 15.8868
      vertex 1.68731e-15 -4.82244 15.599
      vertex 1.75121e-15 -4.33578 15.8868
    endloop
  endfacet
  facet normal 0 -0.509042 0.860742
    outer loop
      vertex 1.68731e-15 -4.82244 15.599
      vertex -4 -4.33578 15.8868
      vertex -4 -4.82244 15.599
    endloop
  endfacet
  facet normal 0 -0.509042 0.860742
    outer loop
      vertex -19 -4.33578 15.8868
      vertex -15 -4.82244 15.599
      vertex -15 -4.33578 15.8868
    endloop
  endfacet
  facet normal 0 -0.509042 0.860742
    outer loop
      vertex -15 -4.82244 15.599
      vertex -19 -4.33578 15.8868
      vertex -19 -4.82244 15.599
    endloop
  endfacet
  facet normal 0 -0.338739 0.940881
    outer loop
      vertex -4 -2.78115 16.5595
      vertex 1.85807e-15 -3.31312 16.368
      vertex 1.90059e-15 -2.78115 16.5595
    endloop
  endfacet
  facet normal 0 -0.338739 0.940881
    outer loop
      vertex 1.85807e-15 -3.31312 16.368
      vertex -4 -2.78115 16.5595
      vertex -4 -3.31312 16.368
    endloop
  endfacet
  facet normal 0 -0.338739 0.940881
    outer loop
      vertex -19 -2.78115 16.5595
      vertex -15 -3.31312 16.368
      vertex -15 -2.78115 16.5595
    endloop
  endfacet
  facet normal 0 -0.338739 0.940881
    outer loop
      vertex -15 -3.31312 16.368
      vertex -19 -2.78115 16.5595
      vertex -19 -3.31312 16.368
    endloop
  endfacet
  facet normal 0 -0.0941068 0.995562
    outer loop
      vertex -4 -0.565114 16.9822
      vertex 1.98264e-15 -1.128 16.929
      vertex 1.99446e-15 -0.565114 16.9822
    endloop
  endfacet
  facet normal 0 -0.0941068 0.995562
    outer loop
      vertex 1.98264e-15 -1.128 16.929
      vertex -4 -0.565114 16.9822
      vertex -4 -1.128 16.929
    endloop
  endfacet
  facet normal 4.74721e-07 -0.0941068 0.995562
    outer loop
      vertex -19 -0.565114 16.9822
      vertex -15 -1.128 16.929
      vertex -15 -0.565114 16.9822
    endloop
  endfacet
  facet normal 0 -0.0941102 0.995562
    outer loop
      vertex -15 -1.128 16.929
      vertex -19 -0.565114 16.9822
      vertex -19 -1.128 16.929
    endloop
  endfacet
  facet normal 4.65353e-07 -0.218143 0.975917
    outer loop
      vertex -19 -1.68643 16.8406
      vertex -15 -2.23821 16.7172
      vertex -15 -1.68643 16.8406
    endloop
  endfacet
  facet normal 4.65353e-07 -0.218143 0.975917
    outer loop
      vertex -15 -2.23821 16.7172
      vertex -19 -1.68643 16.8406
      vertex -19 -2.23821 16.7172
    endloop
  endfacet
  facet normal 0 -0.218143 0.975917
    outer loop
      vertex -4 -1.68643 16.8406
      vertex 1.93562e-15 -2.23821 16.7172
      vertex 1.963e-15 -1.68643 16.8406
    endloop
  endfacet
  facet normal 0 -0.218143 0.975917
    outer loop
      vertex 1.93562e-15 -2.23821 16.7172
      vertex -4 -1.68643 16.8406
      vertex -4 -2.23821 16.7172
    endloop
  endfacet
  facet normal 1.00337e-07 0.031414 0.999506
    outer loop
      vertex -19 20.5651 16.9822
      vertex 1.9984e-15 20 17
      vertex 1.99446e-15 20.5651 16.9822
    endloop
  endfacet
  facet normal 0 0.0314106 0.999507
    outer loop
      vertex 1.9984e-15 20 17
      vertex -19 20.5651 16.9822
      vertex -19 20 17
    endloop
  endfacet
  facet normal 0 0.750111 0.661312
    outer loop
      vertex 1.27383e-15 26.9346 13.7368
      vertex -19 26.5607 14.1609
      vertex 1.368e-15 26.5607 14.1609
    endloop
  endfacet
  facet normal 0 0.750111 0.661312
    outer loop
      vertex -19 26.5607 14.1609
      vertex 1.27383e-15 26.9346 13.7368
      vertex -19 26.9346 13.7368
    endloop
  endfacet
  facet normal -0 0.453991 0.891006
    outer loop
      vertex -19 24.3358 15.8868
      vertex 1.80821e-15 23.832 16.1434
      vertex 1.75121e-15 24.3358 15.8868
    endloop
  endfacet
  facet normal 0 0.453991 0.891006
    outer loop
      vertex 1.80821e-15 23.832 16.1434
      vertex -19 24.3358 15.8868
      vertex -19 23.832 16.1434
    endloop
  endfacet
  facet normal 0 0.940881 0.338739
    outer loop
      vertex 6.1754e-16 28.5595 10.7812
      vertex -19 28.368 11.3131
      vertex 7.35661e-16 28.368 11.3131
    endloop
  endfacet
  facet normal 0 0.940881 0.338739
    outer loop
      vertex -19 28.368 11.3131
      vertex 6.1754e-16 28.5595 10.7812
      vertex -19 28.5595 10.7812
    endloop
  endfacet
  facet normal 0 0.86074 0.509045
    outer loop
      vertex 9.62737e-16 27.8868 12.3358
      vertex -19 27.5989 12.8224
      vertex 1.0708e-15 27.5989 12.8224
    endloop
  endfacet
  facet normal 0 0.86074 0.509045
    outer loop
      vertex -19 27.5989 12.8224
      vertex 9.62737e-16 27.8868 12.3358
      vertex -19 27.8868 12.3358
    endloop
  endfacet
  facet normal 9.79691e-08 0.218143 0.975917
    outer loop
      vertex -19 22.2382 16.7172
      vertex 1.963e-15 21.6864 16.8406
      vertex 1.93562e-15 22.2382 16.7172
    endloop
  endfacet
  facet normal 9.79691e-08 0.218143 0.975917
    outer loop
      vertex 1.963e-15 21.6864 16.8406
      vertex -19 22.2382 16.7172
      vertex -19 21.6864 16.8406
    endloop
  endfacet
  facet normal -0 0.612905 0.790156
    outer loop
      vertex -19 25.7368 14.9346
      vertex 1.61674e-15 25.2901 15.2812
      vertex 1.53979e-15 25.7368 14.9346
    endloop
  endfacet
  facet normal 0 0.612905 0.790156
    outer loop
      vertex 1.61674e-15 25.2901 15.2812
      vertex -19 25.7368 14.9346
      vertex -19 25.2901 15.2812
    endloop
  endfacet
  facet normal -0 0.661313 0.75011
    outer loop
      vertex -19 26.1609 14.5607
      vertex 1.53979e-15 25.7368 14.9346
      vertex 1.45677e-15 26.1609 14.5607
    endloop
  endfacet
  facet normal 0 0.661313 0.75011
    outer loop
      vertex 1.53979e-15 25.7368 14.9346
      vertex -19 26.1609 14.5607
      vertex -19 25.7368 14.9346
    endloop
  endfacet
  facet normal -0 0.562084 0.82708
    outer loop
      vertex -19 25.2901 15.2812
      vertex 1.68731e-15 24.8224 15.599
      vertex 1.61674e-15 25.2901 15.2812
    endloop
  endfacet
  facet normal 0 0.562084 0.82708
    outer loop
      vertex 1.68731e-15 24.8224 15.599
      vertex -19 25.2901 15.2812
      vertex -19 24.8224 15.599
    endloop
  endfacet
  facet normal 0 0.987688 0.156435
    outer loop
      vertex 2.50466e-16 28.929 9.128
      vertex -19 28.8406 9.68643
      vertex 3.74463e-16 28.8406 9.68643
    endloop
  endfacet
  facet normal 0 0.987688 0.156435
    outer loop
      vertex -19 28.8406 9.68643
      vertex 2.50466e-16 28.929 9.128
      vertex -19 28.929 9.128
    endloop
  endfacet
  facet normal 0 0.975917 0.218143
    outer loop
      vertex 3.74463e-16 28.8406 9.68643
      vertex -19 28.7172 10.2382
      vertex 4.96982e-16 28.7172 10.2382
    endloop
  endfacet
  facet normal 0 0.975917 0.218143
    outer loop
      vertex -19 28.7172 10.2382
      vertex 3.74463e-16 28.8406 9.68643
      vertex -19 28.8406 9.68643
    endloop
  endfacet
  facet normal 0 0.891007 0.45399
    outer loop
      vertex 8.50878e-16 28.1434 11.832
      vertex -19 27.8868 12.3358
      vertex 9.62737e-16 27.8868 12.3358
    endloop
  endfacet
  facet normal 0 0.891007 0.45399
    outer loop
      vertex -19 27.8868 12.3358
      vertex 8.50878e-16 28.1434 11.832
      vertex -19 28.1434 11.832
    endloop
  endfacet
  facet normal 0 0.790156 0.612906
    outer loop
      vertex 1.17463e-15 27.2812 13.2901
      vertex -19 26.9346 13.7368
      vertex 1.27383e-15 26.9346 13.7368
    endloop
  endfacet
  facet normal 0 0.790156 0.612906
    outer loop
      vertex -19 26.9346 13.7368
      vertex 1.17463e-15 27.2812 13.2901
      vertex -19 27.2812 13.2901
    endloop
  endfacet
  facet normal 9.91508e-08 0.156435 0.987688
    outer loop
      vertex -19 21.6864 16.8406
      vertex 1.98264e-15 21.128 16.929
      vertex 1.963e-15 21.6864 16.8406
    endloop
  endfacet
  facet normal 0 0.156432 0.987689
    outer loop
      vertex 1.98264e-15 21.128 16.929
      vertex -19 21.6864 16.8406
      vertex -19 21.128 16.929
    endloop
  endfacet
  facet normal -0 0.0941067 0.995562
    outer loop
      vertex -19 21.128 16.929
      vertex 1.99446e-15 20.5651 16.9822
      vertex 1.98264e-15 21.128 16.929
    endloop
  endfacet
  facet normal 9.99412e-08 0.09411 0.995562
    outer loop
      vertex 1.99446e-15 20.5651 16.9822
      vertex -19 21.128 16.929
      vertex -19 20.5651 16.9822
    endloop
  endfacet
  facet normal -0 0.278988 0.960295
    outer loop
      vertex -19 22.7812 16.5595
      vertex 1.93562e-15 22.2382 16.7172
      vertex 1.90059e-15 22.7812 16.5595
    endloop
  endfacet
  facet normal 9.64008e-08 0.278991 0.960294
    outer loop
      vertex 1.93562e-15 22.2382 16.7172
      vertex -19 22.7812 16.5595
      vertex -19 22.2382 16.7172
    endloop
  endfacet
  facet normal -0 0.338738 0.940881
    outer loop
      vertex -19 23.3131 16.368
      vertex 1.90059e-15 22.7812 16.5595
      vertex 1.85807e-15 23.3131 16.368
    endloop
  endfacet
  facet normal 0 0.338738 0.940881
    outer loop
      vertex 1.90059e-15 22.7812 16.5595
      vertex -19 23.3131 16.368
      vertex -19 22.7812 16.5595
    endloop
  endfacet
  facet normal -0 0.397149 0.917754
    outer loop
      vertex -19 23.832 16.1434
      vertex 1.85807e-15 23.3131 16.368
      vertex 1.80821e-15 23.832 16.1434
    endloop
  endfacet
  facet normal 0 0.397149 0.917754
    outer loop
      vertex 1.85807e-15 23.3131 16.368
      vertex -19 23.832 16.1434
      vertex -19 23.3131 16.368
    endloop
  endfacet
  facet normal -0 0.509042 0.860742
    outer loop
      vertex -19 24.8224 15.599
      vertex 1.75121e-15 24.3358 15.8868
      vertex 1.68731e-15 24.8224 15.599
    endloop
  endfacet
  facet normal 0 0.509042 0.860742
    outer loop
      vertex 1.75121e-15 24.3358 15.8868
      vertex -19 24.8224 15.599
      vertex -19 24.3358 15.8868
    endloop
  endfacet
  facet normal 0 0.999506 0.031414
    outer loop
      vertex 0 29 8
      vertex -19 28.9822 8.56511
      vertex 1.25481e-16 28.9822 8.56511
    endloop
  endfacet
  facet normal 0 0.999506 0.031414
    outer loop
      vertex -19 28.9822 8.56511
      vertex 0 29 8
      vertex -19 29 8
    endloop
  endfacet
  facet normal -0 0.707106 0.707108
    outer loop
      vertex -19 26.5607 14.1609
      vertex 1.45677e-15 26.1609 14.5607
      vertex 1.368e-15 26.5607 14.1609
    endloop
  endfacet
  facet normal 0 0.707106 0.707108
    outer loop
      vertex 1.45677e-15 26.1609 14.5607
      vertex -19 26.5607 14.1609
      vertex -19 26.1609 14.5607
    endloop
  endfacet
  facet normal 0 0.960295 0.278988
    outer loop
      vertex 4.96982e-16 28.7172 10.2382
      vertex -19 28.5595 10.7812
      vertex 6.1754e-16 28.5595 10.7812
    endloop
  endfacet
  facet normal 0 0.960295 0.278988
    outer loop
      vertex -19 28.5595 10.7812
      vertex 4.96982e-16 28.7172 10.2382
      vertex -19 28.7172 10.2382
    endloop
  endfacet
  facet normal 0 0.995562 0.0941068
    outer loop
      vertex 1.25481e-16 28.9822 8.56511
      vertex -19 28.929 9.128
      vertex 2.50466e-16 28.929 9.128
    endloop
  endfacet
  facet normal 0 0.995562 0.0941068
    outer loop
      vertex -19 28.929 9.128
      vertex 1.25481e-16 28.9822 8.56511
      vertex -19 28.9822 8.56511
    endloop
  endfacet
  facet normal 0 0.917755 0.397148
    outer loop
      vertex 7.35661e-16 28.368 11.3131
      vertex -19 28.1434 11.832
      vertex 8.50878e-16 28.1434 11.832
    endloop
  endfacet
  facet normal 0 0.917755 0.397148
    outer loop
      vertex -19 28.1434 11.832
      vertex 7.35661e-16 28.368 11.3131
      vertex -19 28.368 11.3131
    endloop
  endfacet
  facet normal 0 0.827082 0.562082
    outer loop
      vertex 1.0708e-15 27.5989 12.8224
      vertex -19 27.2812 13.2901
      vertex 1.17463e-15 27.2812 13.2901
    endloop
  endfacet
  facet normal 0 0.827082 0.562082
    outer loop
      vertex -19 27.2812 13.2901
      vertex 1.0708e-15 27.5989 12.8224
      vertex -19 27.5989 12.8224
    endloop
  endfacet
  facet normal 0 0 -1
    outer loop
      vertex -15 -9 -1
      vertex -19 -9 -1
      vertex -15 7.83996 -1
    endloop
  endfacet
  facet normal 0 0 -1
    outer loop
      vertex -4 7.83996 -1
      vertex -1.9984e-15 -9 -1
      vertex -4 -9 -1
    endloop
  endfacet
  facet normal 0 0 -1
    outer loop
      vertex -1.9984e-15 -9 -1
      vertex -4 7.83996 -1
      vertex -1.9984e-15 29 -1
    endloop
  endfacet
  facet normal 0 0 -1
    outer loop
      vertex -15 7.83996 -1
      vertex -1.9984e-15 29 -1
      vertex -4 7.83996 -1
    endloop
  endfacet
  facet normal 0 0 -1
    outer loop
      vertex -15 7.83996 -1
      vertex -19 29 -1
      vertex -1.9984e-15 29 -1
    endloop
  endfacet
  facet normal 0 0 -1
    outer loop
      vertex -19 29 -1
      vertex -15 7.83996 -1
      vertex -19 -9 -1
    endloop
  endfacet
  facet normal 0 0 1
    outer loop
      vertex 1.9984e-15 20 17
      vertex -4 7.83996 17
      vertex 1.9984e-15 0 17
    endloop
  endfacet
  facet normal 0 0 1
    outer loop
      vertex 1.9984e-15 20 17
      vertex -15 7.83996 17
      vertex -4 7.83996 17
    endloop
  endfacet
  facet normal -0 0 1
    outer loop
      vertex -19 20 17
      vertex -15 7.83996 17
      vertex 1.9984e-15 20 17
    endloop
  endfacet
  facet normal 0 0 1
    outer loop
      vertex -19 0 17
      vertex -15 7.83996 17
      vertex -19 20 17
    endloop
  endfacet
  facet normal 0 0 1
    outer loop
      vertex -15 7.83996 17
      vertex -19 0 17
      vertex -15 0 17
    endloop
  endfacet
  facet normal 0 0 1
    outer loop
      vertex 1.9984e-15 0 17
      vertex -4 7.83996 17
      vertex -4 0 17
    endloop
  endfacet
  facet normal 0 1 -0
    outer loop
      vertex -1.9984e-15 29 -1
      vertex -19 29 8
      vertex 0 29 8
    endloop
  endfacet
  facet normal 0 1 0
    outer loop
      vertex -19 29 8
      vertex -1.9984e-15 29 -1
      vertex -19 29 -1
    endloop
  endfacet
  facet normal 0 -1 0
    outer loop
      vertex -19 -9 -1
      vertex -15 -9 8
      vertex -19 -9 8
    endloop
  endfacet
  facet normal 0 -1 -0
    outer loop
      vertex -15 -9 8
      vertex -19 -9 -1
      vertex -15 -9 -1
    endloop
  endfacet
  facet normal 0 -1 0
    outer loop
      vertex -4 -9 -1
      vertex 0 -9 8
      vertex -4 -9 8
    endloop
  endfacet
  facet normal 0 -1 0
    outer loop
      vertex 0 -9 8
      vertex -4 -9 -1
      vertex -1.9984e-15 -9 -1
    endloop
  endfacet
  facet normal 0 -0.5 -0.866025
    outer loop
      vertex -19 0 9.8
      vertex -15 1.55885 8.9
      vertex -15 0 9.8
    endloop
  endfacet
  facet normal -0 -0.5 -0.866025
    outer loop
      vertex -15 1.55885 8.9
      vertex -19 0 9.8
      vertex -19 1.55885 8.9
    endloop
  endfacet
  facet normal 0 -0.5 -0.866025
    outer loop
      vertex -4 0 9.8
      vertex 1.9984e-16 1.55885 8.9
      vertex 3.9968e-16 0 9.8
    endloop
  endfacet
  facet normal -0 -0.5 -0.866025
    outer loop
      vertex 1.9984e-16 1.55885 8.9
      vertex -4 0 9.8
      vertex -4 1.55885 8.9
    endloop
  endfacet
  facet normal 0 -0.5 0.866025
    outer loop
      vertex -19 1.55885 7.1
      vertex -15 0 6.2
      vertex -15 1.55885 7.1
    endloop
  endfacet
  facet normal 0 -0.5 0.866025
    outer loop
      vertex -15 0 6.2
      vertex -19 1.55885 7.1
      vertex -19 0 6.2
    endloop
  endfacet
  facet normal 0 -0.5 0.866025
    outer loop
      vertex -4 1.55885 7.1
      vertex -3.9968e-16 0 6.2
      vertex -1.9984e-16 1.55885 7.1
    endloop
  endfacet
  facet normal 0 -0.5 0.866025
    outer loop
      vertex -3.9968e-16 0 6.2
      vertex -4 1.55885 7.1
      vertex -4 0 6.2
    endloop
  endfacet
  facet normal 0 -1 0
    outer loop
      vertex -19 1.55885 7.1
      vertex -15 1.55885 8.9
      vertex -19 1.55885 8.9
    endloop
  endfacet
  facet normal 0 -1 -0
    outer loop
      vertex -15 1.55885 8.9
      vertex -19 1.55885 7.1
      vertex -15 1.55885 7.1
    endloop
  endfacet
  facet normal 0 -1 0
    outer loop
      vertex -4 1.55885 7.1
      vertex 1.9984e-16 1.55885 8.9
      vertex -4 1.55885 8.9
    endloop
  endfacet
  facet normal 0 -1 0
    outer loop
      vertex 1.9984e-16 1.55885 8.9
      vertex -4 1.55885 7.1
      vertex -1.9984e-16 1.55885 7.1
    endloop
  endfacet
  facet normal 0 1 -0
    outer loop
      vertex -15 -1.55885 7.1
      vertex -19 -1.55885 8.9
      vertex -15 -1.55885 8.9
    endloop
  endfacet
  facet normal 0 1 0
    outer loop
      vertex -19 -1.55885 8.9
      vertex -15 -1.55885 7.1
      vertex -19 -1.55885 7.1
    endloop
  endfacet
  facet normal 0 1 -0
    outer loop
      vertex -1.9984e-16 -1.55885 7.1
      vertex -4 -1.55885 8.9
      vertex 1.9984e-16 -1.55885 8.9
    endloop
  endfacet
  facet normal 0 1 0
    outer loop
      vertex -4 -1.55885 8.9
      vertex -1.9984e-16 -1.55885 7.1
      vertex -4 -1.55885 7.1
    endloop
  endfacet
  facet normal -0 0.5 0.866025
    outer loop
      vertex -19 0 6.2
      vertex -15 -1.55885 7.1
      vertex -15 0 6.2
    endloop
  endfacet
  facet normal 0 0.5 0.866025
    outer loop
      vertex -15 -1.55885 7.1
      vertex -19 0 6.2
      vertex -19 -1.55885 7.1
    endloop
  endfacet
  facet normal -0 0.5 0.866025
    outer loop
      vertex -4 0 6.2
      vertex -1.9984e-16 -1.55885 7.1
      vertex -3.9968e-16 0 6.2
    endloop
  endfacet
  facet normal 0 0.5 0.866025
    outer loop
      vertex -1.9984e-16 -1.55885 7.1
      vertex -4 0 6.2
      vertex -4 -1.55885 7.1
    endloop
  endfacet
  facet normal 0 0.5 -0.866025
    outer loop
      vertex -19 -1.55885 8.9
      vertex -15 0 9.8
      vertex -15 -1.55885 8.9
    endloop
  endfacet
  facet normal 0 0.5 -0.866025
    outer loop
      vertex -15 0 9.8
      vertex -19 -1.55885 8.9
      vertex -19 0 9.8
    endloop
  endfacet
  facet normal 0 0.5 -0.866025
    outer loop
      vertex -4 -1.55885 8.9
      vertex 3.9968e-16 0 9.8
      vertex 1.9984e-16 -1.55885 8.9
    endloop
  endfacet
  facet normal 0 0.5 -0.866025
    outer loop
      vertex 3.9968e-16 0 9.8
      vertex -4 -1.55885 8.9
      vertex -4 0 9.8
    endloop
  endfacet
  facet normal 0 -0.173648 -0.984808
    outer loop
      vertex -19 20 13.5
      vertex 1.1476e-15 21.8811 13.1683
      vertex 1.22125e-15 20 13.5
    endloop
  endfacet
  facet normal -0 -0.173648 -0.984808
    outer loop
      vertex 1.1476e-15 21.8811 13.1683
      vertex -19 20 13.5
      vertex -19 21.8811 13.1683
    endloop
  endfacet
  facet normal 0 -1 0
    outer loop
      vertex -19 25.4164 7.04494
      vertex 2.12067e-16 25.4164 8.95506
      vertex -19 25.4164 8.95506
    endloop
  endfacet
  facet normal 0 -1 0
    outer loop
      vertex 2.12067e-16 25.4164 8.95506
      vertex -19 25.4164 7.04494
      vertex -2.12067e-16 25.4164 7.04494
    endloop
  endfacet
  facet normal 0 -0.766045 -0.642787
    outer loop
      vertex -19 24.7631 10.75
      vertex 9.35528e-16 23.5353 12.2132
      vertex -19 23.5353 12.2132
    endloop
  endfacet
  facet normal 0 -0.766045 -0.642787
    outer loop
      vertex 9.35528e-16 23.5353 12.2132
      vertex -19 24.7631 10.75
      vertex 6.10623e-16 24.7631 10.75
    endloop
  endfacet
  facet normal 0 -0.5 -0.866025
    outer loop
      vertex -19 21.8811 13.1683
      vertex 9.35528e-16 23.5353 12.2132
      vertex 1.1476e-15 21.8811 13.1683
    endloop
  endfacet
  facet normal -0 -0.5 -0.866025
    outer loop
      vertex 9.35528e-16 23.5353 12.2132
      vertex -19 21.8811 13.1683
      vertex -19 23.5353 12.2132
    endloop
  endfacet
  facet normal 0 -0.939692 -0.342021
    outer loop
      vertex -19 25.4164 8.95506
      vertex 6.10623e-16 24.7631 10.75
      vertex -19 24.7631 10.75
    endloop
  endfacet
  facet normal 0 -0.939692 -0.342021
    outer loop
      vertex 6.10623e-16 24.7631 10.75
      vertex -19 25.4164 8.95506
      vertex 2.12067e-16 25.4164 8.95506
    endloop
  endfacet
  facet normal 0 -0.5 0.866025
    outer loop
      vertex -19 23.5353 3.78676
      vertex -1.1476e-15 21.8811 2.83169
      vertex -9.35528e-16 23.5353 3.78676
    endloop
  endfacet
  facet normal 0 -0.5 0.866025
    outer loop
      vertex -1.1476e-15 21.8811 2.83169
      vertex -19 23.5353 3.78676
      vertex -19 21.8811 2.83169
    endloop
  endfacet
  facet normal 0 -0.173648 0.984808
    outer loop
      vertex -19 21.8811 2.83169
      vertex -1.22125e-15 20 2.5
      vertex -1.1476e-15 21.8811 2.83169
    endloop
  endfacet
  facet normal 0 -0.173648 0.984808
    outer loop
      vertex -1.22125e-15 20 2.5
      vertex -19 21.8811 2.83169
      vertex -19 20 2.5
    endloop
  endfacet
  facet normal 0 -0.766045 0.642787
    outer loop
      vertex -19 23.5353 3.78676
      vertex -6.10622e-16 24.7631 5.25
      vertex -19 24.7631 5.25
    endloop
  endfacet
  facet normal 0 -0.766045 0.642787
    outer loop
      vertex -6.10622e-16 24.7631 5.25
      vertex -19 23.5353 3.78676
      vertex -9.35528e-16 23.5353 3.78676
    endloop
  endfacet
  facet normal 0 0.173648 -0.984808
    outer loop
      vertex -19 18.1189 13.1683
      vertex 1.22125e-15 20 13.5
      vertex 1.1476e-15 18.1189 13.1683
    endloop
  endfacet
  facet normal 0 0.173648 -0.984808
    outer loop
      vertex 1.22125e-15 20 13.5
      vertex -19 18.1189 13.1683
      vertex -19 20 13.5
    endloop
  endfacet
  facet normal 0 0.939693 0.34202
    outer loop
      vertex -6.10623e-16 15.2369 5.25
      vertex -19 14.5836 7.04494
      vertex -2.12067e-16 14.5836 7.04494
    endloop
  endfacet
  facet normal 0 0.939693 0.34202
    outer loop
      vertex -19 14.5836 7.04494
      vertex -6.10623e-16 15.2369 5.25
      vertex -19 15.2369 5.25
    endloop
  endfacet
  facet normal -0 0.5 0.866025
    outer loop
      vertex -19 18.1189 2.83169
      vertex -9.35528e-16 16.4647 3.78676
      vertex -1.1476e-15 18.1189 2.83169
    endloop
  endfacet
  facet normal 0 0.5 0.866025
    outer loop
      vertex -9.35528e-16 16.4647 3.78676
      vertex -19 18.1189 2.83169
      vertex -19 16.4647 3.78676
    endloop
  endfacet
  facet normal -0 0.173648 0.984808
    outer loop
      vertex -19 20 2.5
      vertex -1.1476e-15 18.1189 2.83169
      vertex -1.22125e-15 20 2.5
    endloop
  endfacet
  facet normal 0 0.173648 0.984808
    outer loop
      vertex -1.1476e-15 18.1189 2.83169
      vertex -19 20 2.5
      vertex -19 18.1189 2.83169
    endloop
  endfacet
  facet normal 0 -0.939692 0.342021
    outer loop
      vertex -19 24.7631 5.25
      vertex -2.12067e-16 25.4164 7.04494
      vertex -19 25.4164 7.04494
    endloop
  endfacet
  facet normal 0 -0.939692 0.342021
    outer loop
      vertex -2.12067e-16 25.4164 7.04494
      vertex -19 24.7631 5.25
      vertex -6.10622e-16 24.7631 5.25
    endloop
  endfacet
  facet normal 0 0.5 -0.866025
    outer loop
      vertex -19 16.4647 12.2132
      vertex 1.1476e-15 18.1189 13.1683
      vertex 9.35528e-16 16.4647 12.2132
    endloop
  endfacet
  facet normal 0 0.5 -0.866025
    outer loop
      vertex 1.1476e-15 18.1189 13.1683
      vertex -19 16.4647 12.2132
      vertex -19 18.1189 13.1683
    endloop
  endfacet
  facet normal 0 0.939693 -0.34202
    outer loop
      vertex 2.12067e-16 14.5836 8.95506
      vertex -19 15.2369 10.75
      vertex 6.10622e-16 15.2369 10.75
    endloop
  endfacet
  facet normal 0 0.939693 -0.34202
    outer loop
      vertex -19 15.2369 10.75
      vertex 2.12067e-16 14.5836 8.95506
      vertex -19 14.5836 8.95506
    endloop
  endfacet
  facet normal 0 1 -0
    outer loop
      vertex -2.12067e-16 14.5836 7.04494
      vertex -19 14.5836 8.95506
      vertex 2.12067e-16 14.5836 8.95506
    endloop
  endfacet
  facet normal 0 1 0
    outer loop
      vertex -19 14.5836 8.95506
      vertex -2.12067e-16 14.5836 7.04494
      vertex -19 14.5836 7.04494
    endloop
  endfacet
  facet normal 0 0.766044 0.642788
    outer loop
      vertex -9.35528e-16 16.4647 3.78676
      vertex -19 15.2369 5.25
      vertex -6.10623e-16 15.2369 5.25
    endloop
  endfacet
  facet normal 0 0.766044 0.642788
    outer loop
      vertex -19 15.2369 5.25
      vertex -9.35528e-16 16.4647 3.78676
      vertex -19 16.4647 3.78676
    endloop
  endfacet
  facet normal 0 0.766044 -0.642788
    outer loop
      vertex 6.10622e-16 15.2369 10.75
      vertex -19 16.4647 12.2132
      vertex 9.35528e-16 16.4647 12.2132
    endloop
  endfacet
  facet normal 0 0.766044 -0.642788
    outer loop
      vertex -19 16.4647 12.2132
      vertex 6.10622e-16 15.2369 10.75
      vertex -19 15.2369 10.75
    endloop
  endfacet
  facet normal 0 -0.66913 -0.743145
    outer loop
      vertex -15 7.83996 17
      vertex -4 8.91774 16.0296
      vertex -4 7.83996 17
    endloop
  endfacet
  facet normal -0 -0.66913 -0.743145
    outer loop
      vertex -4 8.91774 16.0296
      vertex -15 7.83996 17
      vertex -15 8.91774 16.0296
    endloop
  endfacet
  facet normal 0 -0.978148 -0.207912
    outer loop
      vertex -15 11.9343 9.25434
      vertex -4 11.4127 11.7082
      vertex -15 11.4127 11.7082
    endloop
  endfacet
  facet normal 0 -0.978148 -0.207912
    outer loop
      vertex -4 11.4127 11.7082
      vertex -15 11.9343 9.25434
      vertex -4 11.9343 9.25434
    endloop
  endfacet
  facet normal 0 -0.913545 -0.406737
    outer loop
      vertex -15 11.4127 11.7082
      vertex -4 10.3923 14
      vertex -15 10.3923 14
    endloop
  endfacet
  facet normal 0 -0.913545 -0.406737
    outer loop
      vertex -4 10.3923 14
      vertex -15 11.4127 11.7082
      vertex -4 11.4127 11.7082
    endloop
  endfacet
  facet normal 0 -0.913545 0.406737
    outer loop
      vertex -15 10.3923 2
      vertex -4 11.4127 4.2918
      vertex -15 11.4127 4.2918
    endloop
  endfacet
  facet normal 0 -0.913545 0.406737
    outer loop
      vertex -4 11.4127 4.2918
      vertex -15 10.3923 2
      vertex -4 10.3923 2
    endloop
  endfacet
  facet normal 0 -0.809017 -0.587785
    outer loop
      vertex -15 10.3923 14
      vertex -4 8.91774 16.0296
      vertex -15 8.91774 16.0296
    endloop
  endfacet
  facet normal 0 -0.809017 -0.587785
    outer loop
      vertex -4 8.91774 16.0296
      vertex -15 10.3923 14
      vertex -4 10.3923 14
    endloop
  endfacet
  facet normal 0 -1 0
    outer loop
      vertex -15 11.9343 6.74566
      vertex -4 11.9343 9.25434
      vertex -15 11.9343 9.25434
    endloop
  endfacet
  facet normal 0 -1 -0
    outer loop
      vertex -4 11.9343 9.25434
      vertex -15 11.9343 6.74566
      vertex -4 11.9343 6.74566
    endloop
  endfacet
  facet normal 0 -0.809017 0.587785
    outer loop
      vertex -15 8.91774 -0.0295668
      vertex -4 10.3923 2
      vertex -15 10.3923 2
    endloop
  endfacet
  facet normal 0 -0.809017 0.587785
    outer loop
      vertex -4 10.3923 2
      vertex -15 8.91774 -0.0295668
      vertex -4 8.91774 -0.0295668
    endloop
  endfacet
  facet normal 0 -0.978148 0.207912
    outer loop
      vertex -15 11.4127 4.2918
      vertex -4 11.9343 6.74566
      vertex -15 11.9343 6.74566
    endloop
  endfacet
  facet normal 0 -0.978148 0.207912
    outer loop
      vertex -4 11.9343 6.74566
      vertex -15 11.4127 4.2918
      vertex -4 11.4127 4.2918
    endloop
  endfacet
  facet normal 0 -0.669131 0.743145
    outer loop
      vertex -15 8.91774 -0.0295668
      vertex -4 7.83996 -1
      vertex -4 8.91774 -0.0295668
    endloop
  endfacet
  facet normal 0 -0.669131 0.743145
    outer loop
      vertex -4 7.83996 -1
      vertex -15 8.91774 -0.0295668
      vertex -15 7.83996 -1
    endloop
  endfacet
  facet normal 1 0 0
    outer loop
      vertex -15 1.55885 8.9
      vertex -15 11.9343 9.25434
      vertex -15 11.4127 11.7082
    endloop
  endfacet
  facet normal 1 0 0
    outer loop
      vertex -15 11.9343 9.25434
      vertex -15 1.55885 8.9
      vertex -15 11.9343 6.74566
    endloop
  endfacet
  facet normal 1 0 0
    outer loop
      vertex -15 1.55885 8.9
      vertex -15 11.4127 11.7082
      vertex -15 10.3923 14
    endloop
  endfacet
  facet normal 1 -0 0
    outer loop
      vertex -15 1.55885 7.1
      vertex -15 11.9343 6.74566
      vertex -15 1.55885 8.9
    endloop
  endfacet
  facet normal 1 0 0
    outer loop
      vertex -15 1.55885 8.9
      vertex -15 10.3923 14
      vertex -15 8.91774 16.0296
    endloop
  endfacet
  facet normal 1 0 0
    outer loop
      vertex -15 11.9343 6.74566
      vertex -15 1.55885 7.1
      vertex -15 11.4127 4.2918
    endloop
  endfacet
  facet normal 1 0 0
    outer loop
      vertex -15 1.55885 8.9
      vertex -15 8.91774 16.0296
      vertex -15 7.83996 17
    endloop
  endfacet
  facet normal 1 0 0
    outer loop
      vertex -15 11.4127 4.2918
      vertex -15 1.55885 7.1
      vertex -15 10.3923 2
    endloop
  endfacet
  facet normal 1 0 0
    outer loop
      vertex -15 10.3923 2
      vertex -15 1.55885 7.1
      vertex -15 8.91774 -0.0295668
    endloop
  endfacet
  facet normal 1 -0 0
    outer loop
      vertex -15 0 17
      vertex -15 1.55885 8.9
      vertex -15 7.83996 17
    endloop
  endfacet
  facet normal 1 0 0
    outer loop
      vertex -15 0 17
      vertex -15 0 9.8
      vertex -15 1.55885 8.9
    endloop
  endfacet
  facet normal 1 -0 0
    outer loop
      vertex -15 -0.565114 16.9822
      vertex -15 0 9.8
      vertex -15 0 17
    endloop
  endfacet
  facet normal 1 -0 0
    outer loop
      vertex -15 -1.128 16.929
      vertex -15 0 9.8
      vertex -15 -0.565114 16.9822
    endloop
  endfacet
  facet normal 1 -0 0
    outer loop
      vertex -15 -1.68643 16.8406
      vertex -15 0 9.8
      vertex -15 -1.128 16.929
    endloop
  endfacet
  facet normal 1 -0 0
    outer loop
      vertex -15 -2.78115 16.5595
      vertex -15 0 9.8
      vertex -15 -2.23821 16.7172
    endloop
  endfacet
  facet normal 1 -0 0
    outer loop
      vertex -15 -2.23821 16.7172
      vertex -15 0 9.8
      vertex -15 -1.68643 16.8406
    endloop
  endfacet
  facet normal 1 0 0
    outer loop
      vertex -15 8.91774 -0.0295668
      vertex -15 1.55885 7.1
      vertex -15 7.83996 -1
    endloop
  endfacet
  facet normal 1 -0 0
    outer loop
      vertex -15 0 6.2
      vertex -15 7.83996 -1
      vertex -15 1.55885 7.1
    endloop
  endfacet
  facet normal 1 0 0
    outer loop
      vertex -15 -9 -1
      vertex -15 0 6.2
      vertex -15 -1.55885 7.1
    endloop
  endfacet
  facet normal 1 -0 0
    outer loop
      vertex -15 -3.31312 16.368
      vertex -15 0 9.8
      vertex -15 -2.78115 16.5595
    endloop
  endfacet
  facet normal 1 -0 0
    outer loop
      vertex -15 -3.83201 16.1434
      vertex -15 0 9.8
      vertex -15 -3.31312 16.368
    endloop
  endfacet
  facet normal 1 -0 0
    outer loop
      vertex -15 -4.33578 15.8868
      vertex -15 0 9.8
      vertex -15 -3.83201 16.1434
    endloop
  endfacet
  facet normal 1 0 0
    outer loop
      vertex -15 0 9.8
      vertex -15 -4.33578 15.8868
      vertex -15 -1.55885 8.9
    endloop
  endfacet
  facet normal 1 -0 0
    outer loop
      vertex -15 -4.82244 15.599
      vertex -15 -1.55885 8.9
      vertex -15 -4.33578 15.8868
    endloop
  endfacet
  facet normal 1 -0 0
    outer loop
      vertex -15 -5.29007 15.2812
      vertex -15 -1.55885 8.9
      vertex -15 -4.82244 15.599
    endloop
  endfacet
  facet normal 1 -0 0
    outer loop
      vertex -15 -5.73682 14.9346
      vertex -15 -1.55885 8.9
      vertex -15 -5.29007 15.2812
    endloop
  endfacet
  facet normal 1 -0 0
    outer loop
      vertex -15 -6.16092 14.5607
      vertex -15 -1.55885 8.9
      vertex -15 -5.73682 14.9346
    endloop
  endfacet
  facet normal 1 -0 0
    outer loop
      vertex -15 -6.56072 14.1609
      vertex -15 -1.55885 8.9
      vertex -15 -6.16092 14.5607
    endloop
  endfacet
  facet normal 1 -0 0
    outer loop
      vertex -15 -6.93462 13.7368
      vertex -15 -1.55885 8.9
      vertex -15 -6.56072 14.1609
    endloop
  endfacet
  facet normal 1 -0 0
    outer loop
      vertex -15 -7.28115 13.2901
      vertex -15 -1.55885 8.9
      vertex -15 -6.93462 13.7368
    endloop
  endfacet
  facet normal 1 -0 0
    outer loop
      vertex -15 -7.59895 12.8224
      vertex -15 -1.55885 8.9
      vertex -15 -7.28115 13.2901
    endloop
  endfacet
  facet normal 1 -0 0
    outer loop
      vertex -15 -7.88676 12.3358
      vertex -15 -1.55885 8.9
      vertex -15 -7.59895 12.8224
    endloop
  endfacet
  facet normal 1 -0 0
    outer loop
      vertex -15 -8.14344 11.832
      vertex -15 -1.55885 8.9
      vertex -15 -7.88676 12.3358
    endloop
  endfacet
  facet normal 1 -0 0
    outer loop
      vertex -15 -8.36799 11.3131
      vertex -15 -1.55885 8.9
      vertex -15 -8.14344 11.832
    endloop
  endfacet
  facet normal 1 -0 0
    outer loop
      vertex -15 -8.55951 10.7812
      vertex -15 -1.55885 8.9
      vertex -15 -8.36799 11.3131
    endloop
  endfacet
  facet normal 1 -0 0
    outer loop
      vertex -15 -8.71725 10.2382
      vertex -15 -1.55885 8.9
      vertex -15 -8.55951 10.7812
    endloop
  endfacet
  facet normal 1 -0 0
    outer loop
      vertex -15 -8.84058 9.68643
      vertex -15 -1.55885 8.9
      vertex -15 -8.71725 10.2382
    endloop
  endfacet
  facet normal 1 -0 0
    outer loop
      vertex -15 -8.92903 9.128
      vertex -15 -1.55885 8.9
      vertex -15 -8.84058 9.68643
    endloop
  endfacet
  facet normal 1 0 0
    outer loop
      vertex -15 -8.98224 8.56511
      vertex -15 -1.55885 8.9
      vertex -15 -8.92903 9.128
    endloop
  endfacet
  facet normal 1 0 0
    outer loop
      vertex -15 -9 8
      vertex -15 -1.55885 8.9
      vertex -15 -8.98224 8.56511
    endloop
  endfacet
  facet normal 1 0 0
    outer loop
      vertex -15 -1.55885 8.9
      vertex -15 -9 8
      vertex -15 -1.55885 7.1
    endloop
  endfacet
  facet normal 1 0 0
    outer loop
      vertex -15 -9 -1
      vertex -15 -1.55885 7.1
      vertex -15 -9 8
    endloop
  endfacet
  facet normal 1 0 0
    outer loop
      vertex -15 0 6.2
      vertex -15 -9 -1
      vertex -15 7.83996 -1
    endloop
  endfacet
  facet normal -1 0 0
    outer loop
      vertex -4 1.55885 7.1
      vertex -4 11.9343 6.74566
      vertex -4 11.4127 4.2918
    endloop
  endfacet
  facet normal -1 0 0
    outer loop
      vertex -4 11.9343 6.74566
      vertex -4 1.55885 7.1
      vertex -4 11.9343 9.25434
    endloop
  endfacet
  facet normal -1 0 0
    outer loop
      vertex -4 1.55885 7.1
      vertex -4 11.4127 4.2918
      vertex -4 10.3923 2
    endloop
  endfacet
  facet normal -1 0 0
    outer loop
      vertex -4 1.55885 8.9
      vertex -4 11.9343 9.25434
      vertex -4 1.55885 7.1
    endloop
  endfacet
  facet normal -1 0 0
    outer loop
      vertex -4 1.55885 7.1
      vertex -4 10.3923 2
      vertex -4 8.91774 -0.0295668
    endloop
  endfacet
  facet normal -1 -0 0
    outer loop
      vertex -4 11.9343 9.25434
      vertex -4 1.55885 8.9
      vertex -4 11.4127 11.7082
    endloop
  endfacet
  facet normal -1 0 0
    outer loop
      vertex -4 1.55885 7.1
      vertex -4 8.91774 -0.0295668
      vertex -4 7.83996 -1
    endloop
  endfacet
  facet normal -1 -0 0
    outer loop
      vertex -4 11.4127 11.7082
      vertex -4 1.55885 8.9
      vertex -4 10.3923 14
    endloop
  endfacet
  facet normal -1 -0 0
    outer loop
      vertex -4 10.3923 14
      vertex -4 1.55885 8.9
      vertex -4 8.91774 16.0296
    endloop
  endfacet
  facet normal -1 0 0
    outer loop
      vertex -4 7.83996 -1
      vertex -4 0 6.2
      vertex -4 1.55885 7.1
    endloop
  endfacet
  facet normal -1 0 0
    outer loop
      vertex -4 -9 -1
      vertex -4 0 6.2
      vertex -4 7.83996 -1
    endloop
  endfacet
  facet normal -1 0 0
    outer loop
      vertex -4 -9 8
      vertex -4 -1.55885 8.9
      vertex -4 -1.55885 7.1
    endloop
  endfacet
  facet normal -1 0 0
    outer loop
      vertex -4 -1.55885 8.9
      vertex -4 -2.23821 16.7172
      vertex -4 -1.68643 16.8406
    endloop
  endfacet
  facet normal -1 0 0
    outer loop
      vertex -4 -1.55885 8.9
      vertex -4 -2.78115 16.5595
      vertex -4 -2.23821 16.7172
    endloop
  endfacet
  facet normal -1 0 0
    outer loop
      vertex -4 -1.55885 8.9
      vertex -4 -3.31312 16.368
      vertex -4 -2.78115 16.5595
    endloop
  endfacet
  facet normal -1 0 0
    outer loop
      vertex -4 -1.55885 8.9
      vertex -4 -3.83201 16.1434
      vertex -4 -3.31312 16.368
    endloop
  endfacet
  facet normal -1 0 0
    outer loop
      vertex -4 -1.55885 8.9
      vertex -4 -4.33578 15.8868
      vertex -4 -3.83201 16.1434
    endloop
  endfacet
  facet normal -1 0 0
    outer loop
      vertex -4 -1.55885 8.9
      vertex -4 -4.82244 15.599
      vertex -4 -4.33578 15.8868
    endloop
  endfacet
  facet normal -1 0 0
    outer loop
      vertex -4 -1.55885 8.9
      vertex -4 -5.29007 15.2812
      vertex -4 -4.82244 15.599
    endloop
  endfacet
  facet normal -1 0 0
    outer loop
      vertex -4 -1.55885 8.9
      vertex -4 -5.73682 14.9346
      vertex -4 -5.29007 15.2812
    endloop
  endfacet
  facet normal -1 0 0
    outer loop
      vertex -4 -1.55885 8.9
      vertex -4 -6.16092 14.5607
      vertex -4 -5.73682 14.9346
    endloop
  endfacet
  facet normal -1 0 0
    outer loop
      vertex -4 -1.55885 8.9
      vertex -4 -6.56072 14.1609
      vertex -4 -6.16092 14.5607
    endloop
  endfacet
  facet normal -1 0 0
    outer loop
      vertex -4 -1.55885 8.9
      vertex -4 -6.93462 13.7368
      vertex -4 -6.56072 14.1609
    endloop
  endfacet
  facet normal -1 0 0
    outer loop
      vertex -4 -1.55885 8.9
      vertex -4 -7.28115 13.2901
      vertex -4 -6.93462 13.7368
    endloop
  endfacet
  facet normal -1 0 0
    outer loop
      vertex -4 -1.55885 8.9
      vertex -4 -7.59895 12.8224
      vertex -4 -7.28115 13.2901
    endloop
  endfacet
  facet normal -1 0 0
    outer loop
      vertex -4 -1.55885 8.9
      vertex -4 -7.88676 12.3358
      vertex -4 -7.59895 12.8224
    endloop
  endfacet
  facet normal -1 -0 0
    outer loop
      vertex -4 0 6.2
      vertex -4 -9 -1
      vertex -4 -1.55885 7.1
    endloop
  endfacet
  facet normal -1 0 0
    outer loop
      vertex -4 -1.55885 8.9
      vertex -4 -9 8
      vertex -4 -8.98224 8.56511
    endloop
  endfacet
  facet normal -1 0 0
    outer loop
      vertex -4 -1.55885 8.9
      vertex -4 -8.14344 11.832
      vertex -4 -7.88676 12.3358
    endloop
  endfacet
  facet normal -1 0 0
    outer loop
      vertex -4 -1.55885 8.9
      vertex -4 -8.36799 11.3131
      vertex -4 -8.14344 11.832
    endloop
  endfacet
  facet normal -1 0 0
    outer loop
      vertex -4 -1.55885 8.9
      vertex -4 -8.55951 10.7812
      vertex -4 -8.36799 11.3131
    endloop
  endfacet
  facet normal -1 0 0
    outer loop
      vertex -4 -1.55885 8.9
      vertex -4 -8.71725 10.2382
      vertex -4 -8.55951 10.7812
    endloop
  endfacet
  facet normal -1 0 0
    outer loop
      vertex -4 -1.55885 8.9
      vertex -4 -8.84058 9.68643
      vertex -4 -8.71725 10.2382
    endloop
  endfacet
  facet normal -1 0 0
    outer loop
      vertex -4 -1.55885 8.9
      vertex -4 -8.92903 9.128
      vertex -4 -8.84058 9.68643
    endloop
  endfacet
  facet normal -1 -0 0
    outer loop
      vertex -4 -1.55885 7.1
      vertex -4 -9 -1
      vertex -4 -9 8
    endloop
  endfacet
  facet normal -1 -0 0
    outer loop
      vertex -4 -1.55885 8.9
      vertex -4 -8.98224 8.56511
      vertex -4 -8.92903 9.128
    endloop
  endfacet
  facet normal -1 -0 0
    outer loop
      vertex -4 8.91774 16.0296
      vertex -4 1.55885 8.9
      vertex -4 7.83996 17
    endloop
  endfacet
  facet normal -1 0 0
    outer loop
      vertex -4 0 17
      vertex -4 1.55885 8.9
      vertex -4 0 9.8
    endloop
  endfacet
  facet normal -1 0 0
    outer loop
      vertex -4 1.55885 8.9
      vertex -4 0 17
      vertex -4 7.83996 17
    endloop
  endfacet
  facet normal -1 0 0
    outer loop
      vertex -4 0 9.8
      vertex -4 -0.565114 16.9822
      vertex -4 0 17
    endloop
  endfacet
  facet normal -1 0 0
    outer loop
      vertex -4 0 9.8
      vertex -4 -1.128 16.929
      vertex -4 -0.565114 16.9822
    endloop
  endfacet
  facet normal -1 0 0
    outer loop
      vertex -4 -1.68643 16.8406
      vertex -4 0 9.8
      vertex -4 -1.55885 8.9
    endloop
  endfacet
  facet normal -1 0 0
    outer loop
      vertex -4 0 9.8
      vertex -4 -1.68643 16.8406
      vertex -4 -1.128 16.929
    endloop
  endfacet
endsolid OpenSCAD_Model
